Comme-Thin.ufo
<glyph name="exclam" format="1">
  <advance width="532"/>
  <unicode hex="0021"/>
  <outline>
    <contour>
      <point x="245" y="404" type="line"/>
      <point x="277" y="404" type="line"/>
      <point x="324" y="1424" type="line"/>
      <point x="324" y="1480" type="line"/>
      <point x="194" y="1480" type="line"/>
      <point x="194" y="1424" type="line"/>
    </contour>
    <contour>
      <point x="267" y="-17" type="curve" smooth="yes"/>
      <point x="343" y="-17"/>
      <point x="358" y="30"/>
      <point x="358" y="71" type="curve" smooth="yes"/>
      <point x="358" y="109"/>
      <point x="343" y="158"/>
      <point x="267" y="158" type="curve" smooth="yes"/>
      <point x="193" y="158"/>
      <point x="178" y="109"/>
      <point x="178" y="71" type="curve" smooth="yes"/>
      <point x="178" y="33"/>
      <point x="193" y="-17"/>
    </contour>
  </outline>
</glyph>
<glyph name="percent" format="1">
  <advance width="1806"/>
  <unicode hex="0025"/>
  <outline>
    <contour>
      <point x="417" y="778" type="curve" smooth="yes"/>
      <point x="245" y="778"/>
      <point x="173" y="909"/>
      <point x="173" y="1088" type="curve" smooth="yes"/>
      <point x="173" y="1264"/>
      <point x="244" y="1397"/>
      <point x="417" y="1397" type="curve" smooth="yes"/>
      <point x="587" y="1397"/>
      <point x="658" y="1270"/>
      <point x="658" y="1088" type="curve" smooth="yes"/>
      <point x="658" y="914"/>
      <point x="588" y="778"/>
    </contour>
    <contour>
      <point x="414" y="711" type="curve" smooth="yes"/>
      <point x="636" y="711"/>
      <point x="743" y="876"/>
      <point x="743" y="1088" type="curve" smooth="yes"/>
      <point x="743" y="1303"/>
      <point x="639" y="1463"/>
      <point x="414" y="1463" type="curve" smooth="yes"/>
      <point x="194" y="1463"/>
      <point x="86" y="1300"/>
      <point x="86" y="1088" type="curve" smooth="yes"/>
      <point x="86" y="876"/>
      <point x="190" y="711"/>
    </contour>
    <contour>
      <point x="435" y="0" type="line"/>
      <point x="534" y="0" type="line"/>
      <point x="1356" y="1455" type="line"/>
      <point x="1267" y="1455" type="line"/>
    </contour>
    <contour>
      <point x="1369" y="54" type="curve" smooth="yes"/>
      <point x="1198" y="54"/>
      <point x="1125" y="185"/>
      <point x="1125" y="364" type="curve" smooth="yes"/>
      <point x="1125" y="540"/>
      <point x="1197" y="673"/>
      <point x="1369" y="673" type="curve" smooth="yes"/>
      <point x="1539" y="673"/>
      <point x="1611" y="546"/>
      <point x="1611" y="364" type="curve" smooth="yes"/>
      <point x="1611" y="190"/>
      <point x="1540" y="54"/>
    </contour>
    <contour>
      <point x="1367" y="-13" type="curve" smooth="yes"/>
      <point x="1589" y="-13"/>
      <point x="1696" y="152"/>
      <point x="1696" y="364" type="curve" smooth="yes"/>
      <point x="1696" y="580"/>
      <point x="1592" y="740"/>
      <point x="1367" y="740" type="curve" smooth="yes"/>
      <point x="1147" y="740"/>
      <point x="1039" y="577"/>
      <point x="1039" y="364" type="curve" smooth="yes"/>
      <point x="1039" y="152"/>
      <point x="1143" y="-13"/>
    </contour>
  </outline>
</glyph>
<glyph name="quotesingle" format="1">
  <advance width="232"/>
  <unicode hex="0027"/>
  <outline>
    <contour>
      <point x="80" y="1002" type="line"/>
      <point x="138" y="1002" type="line"/>
      <point x="151" y="1458" type="line"/>
      <point x="70" y="1458" type="line"/>
    </contour>
  </outline>
</glyph>
<glyph name="hyphen" format="1">
  <advance width="811"/>
  <unicode hex="002D"/>
  <outline>
    <contour>
      <point x="143" y="534" type="line"/>
      <point x="641" y="534" type="line"/>
      <point x="641" y="606" type="line"/>
      <point x="143" y="606" type="line"/>
    </contour>
    <contour>
      <point x="375" y="572" type="move" name="_mid"/>
    </contour>
  </outline>
</glyph>
<glyph name="period" format="1">
  <advance width="459"/>
  <unicode hex="002E"/>
  <outline>
    <contour>
      <point x="235" y="-21" type="curve" smooth="yes"/>
      <point x="299" y="-21"/>
      <point x="311" y="23"/>
      <point x="311" y="58" type="curve" smooth="yes"/>
      <point x="311" y="92"/>
      <point x="299" y="136"/>
      <point x="235" y="136" type="curve" smooth="yes"/>
      <point x="167" y="136"/>
      <point x="157" y="92"/>
      <point x="157" y="58" type="curve" smooth="yes"/>
      <point x="157" y="24"/>
      <point x="170" y="-21"/>
    </contour>
  </outline>
</glyph>
<glyph name="zero" format="1">
  <advance width="1235"/>
  <unicode hex="0030"/>
  <outline>
    <contour>
      <point x="621" y="59" type="curve" smooth="yes"/>
      <point x="413" y="59"/>
      <point x="240" y="203"/>
      <point x="240" y="727" type="curve" smooth="yes"/>
      <point x="240" y="739" type="line" smooth="yes"/>
      <point x="240" y="1221"/>
      <point x="413" y="1395"/>
      <point x="621" y="1395" type="curve" smooth="yes"/>
      <point x="827" y="1395"/>
      <point x="987" y="1269"/>
      <point x="987" y="729" type="curve" smooth="yes"/>
      <point x="987" y="205"/>
      <point x="827" y="59"/>
    </contour>
    <contour>
      <point x="621" y="-20" type="curve" smooth="yes"/>
      <point x="934" y="-20"/>
      <point x="1079" y="249"/>
      <point x="1079" y="725" type="curve" smooth="yes"/>
      <point x="1079" y="1237"/>
      <point x="909" y="1476"/>
      <point x="621" y="1476" type="curve" smooth="yes"/>
      <point x="330" y="1476"/>
      <point x="145" y="1234"/>
      <point x="145" y="725" type="curve" smooth="yes"/>
      <point x="145" y="249"/>
      <point x="306" y="-20"/>
    </contour>
  </outline>
</glyph>
<glyph name="one" format="1">
  <advance width="1200"/>
  <unicode hex="0031"/>
  <outline>
    <contour>
      <point x="236" y="0" type="line"/>
      <point x="1053" y="0" type="line"/>
      <point x="1053" y="72" type="line"/>
      <point x="715" y="72" type="line"/>
      <point x="714" y="1456" type="line"/>
      <point x="613" y="1456" type="line"/>
      <point x="542" y="1406"/>
      <point x="336" y="1349"/>
      <point x="279" y="1344" type="curve"/>
      <point x="279" y="1266" type="line"/>
      <point x="336" y="1272"/>
      <point x="515" y="1317"/>
      <point x="617" y="1372" type="curve"/>
      <point x="617" y="72" type="line"/>
      <point x="236" y="72" type="line"/>
    </contour>
  </outline>
</glyph>
<glyph name="two" format="1">
  <advance width="1200"/>
  <unicode hex="0032"/>
  <outline>
    <contour>
      <point x="182" y="1308" type="line"/>
      <point x="293" y="1373"/>
      <point x="421" y="1407"/>
      <point x="546" y="1407" type="curve" smooth="yes"/>
      <point x="680" y="1407"/>
      <point x="911" y="1358"/>
      <point x="911" y="1076" type="curve" smooth="yes"/>
      <point x="911" y="860"/>
      <point x="826" y="806"/>
      <point x="676" y="653" type="curve" smooth="yes"/>
      <point x="107" y="71" type="line"/>
      <point x="144" y="0" type="line"/>
      <point x="1011" y="0" type="line"/>
      <point x="1015" y="73" type="line"/>
      <point x="220" y="73" type="line"/>
      <point x="747" y="611" type="line" smooth="yes"/>
      <point x="940" y="807"/>
      <point x="1001" y="865"/>
      <point x="1001" y="1095" type="curve" smooth="yes"/>
      <point x="1001" y="1403"/>
      <point x="682" y="1476"/>
      <point x="540" y="1476" type="curve" smooth="yes"/>
      <point x="381" y="1476"/>
      <point x="223" y="1421"/>
      <point x="139" y="1368" type="curve"/>
      <point x="171" y="1308" type="line"/>
    </contour>
  </outline>
</glyph>
<glyph name="three" format="1">
  <advance width="1200"/>
  <unicode hex="0033"/>
  <outline>
    <contour>
      <point x="563" y="-20" type="curve" smooth="yes"/>
      <point x="883" y="-20"/>
      <point x="1051" y="142"/>
      <point x="1051" y="391" type="curve" smooth="yes"/>
      <point x="1051" y="627"/>
      <point x="912" y="741"/>
      <point x="703" y="778" type="curve"/>
      <point x="900" y="816"/>
      <point x="1014" y="912"/>
      <point x="1014" y="1128" type="curve" smooth="yes"/>
      <point x="1014" y="1360"/>
      <point x="809" y="1476"/>
      <point x="565" y="1476" type="curve" smooth="yes"/>
      <point x="428" y="1476"/>
      <point x="278" y="1437"/>
      <point x="157" y="1358" type="curve"/>
      <point x="197" y="1294" type="line"/>
      <point x="199" y="1294" type="line"/>
      <point x="305" y="1363"/>
      <point x="447" y="1402"/>
      <point x="570" y="1402" type="curve" smooth="yes"/>
      <point x="758" y="1402"/>
      <point x="928" y="1329"/>
      <point x="928" y="1124" type="curve" smooth="yes"/>
      <point x="928" y="858"/>
      <point x="691" y="828"/>
      <point x="484" y="818" type="curve"/>
      <point x="422" y="818" type="line"/>
      <point x="434" y="737" type="line"/>
      <point x="482" y="737" type="line"/>
      <point x="733" y="732"/>
      <point x="969" y="688"/>
      <point x="969" y="383" type="curve" smooth="yes"/>
      <point x="969" y="151"/>
      <point x="813" y="52"/>
      <point x="570" y="52" type="curve" smooth="yes"/>
      <point x="414" y="52"/>
      <point x="280" y="103"/>
      <point x="217" y="143" type="curve"/>
      <point x="209" y="143" type="line"/>
      <point x="170" y="86" type="line"/>
      <point x="219" y="55"/>
      <point x="359" y="-20"/>
    </contour>
  </outline>
</glyph>
<glyph name="four" format="1">
  <advance width="1200"/>
  <unicode hex="0034"/>
  <outline>
    <contour>
      <point x="828" y="0" type="line"/>
      <point x="914" y="0" type="line"/>
      <point x="914" y="407" type="line"/>
      <point x="1088" y="407" type="line"/>
      <point x="1098" y="477" type="line"/>
      <point x="914" y="477" type="line"/>
      <point x="913" y="1456" type="line"/>
      <point x="850" y="1456" type="line"/>
      <point x="131" y="515" type="line"/>
      <point x="134" y="407" type="line"/>
      <point x="828" y="407" type="line"/>
    </contour>
    <contour>
      <point x="225" y="480" type="line"/>
      <point x="826" y="1311" type="line"/>
      <point x="826" y="480" type="line"/>
    </contour>
  </outline>
</glyph>
<glyph name="five" format="1">
  <advance width="1200"/>
  <unicode hex="0035"/>
  <outline>
    <contour>
      <point x="196" y="153" type="line"/>
      <point x="163" y="90" type="line"/>
      <point x="299" y="3"/>
      <point x="429" y="-20"/>
      <point x="552" y="-20" type="curve" smooth="yes"/>
      <point x="820" y="-20"/>
      <point x="1065" y="134"/>
      <point x="1065" y="466" type="curve" smooth="yes"/>
      <point x="1065" y="693"/>
      <point x="922" y="900"/>
      <point x="609" y="900" type="curve" smooth="yes"/>
      <point x="489" y="900"/>
      <point x="409" y="872"/>
      <point x="310" y="810" type="curve"/>
      <point x="352" y="1383" type="line"/>
      <point x="986" y="1383" type="line"/>
      <point x="995" y="1456" type="line"/>
      <point x="281" y="1456" type="line"/>
      <point x="229" y="718" type="line"/>
      <point x="325" y="712" type="line"/>
      <point x="386" y="778"/>
      <point x="503" y="825"/>
      <point x="621" y="825" type="curve" smooth="yes"/>
      <point x="884" y="824"/>
      <point x="968" y="647"/>
      <point x="968" y="459" type="curve" smooth="yes"/>
      <point x="968" y="188"/>
      <point x="769" y="55"/>
      <point x="544" y="55" type="curve" smooth="yes"/>
      <point x="441" y="55"/>
      <point x="330" y="77"/>
      <point x="207" y="153" type="curve"/>
    </contour>
  </outline>
</glyph>
<glyph name="six" format="1">
  <advance width="1200"/>
  <unicode hex="0036"/>
  <outline>
    <contour>
      <point x="627" y="-20" type="curve" smooth="yes"/>
      <point x="910" y="-20"/>
      <point x="1065" y="189"/>
      <point x="1065" y="422" type="curve" smooth="yes"/>
      <point x="1065" y="680"/>
      <point x="858" y="835"/>
      <point x="650" y="835" type="curve" smooth="yes"/>
      <point x="529" y="835"/>
      <point x="414" y="794"/>
      <point x="343" y="732" type="curve"/>
      <point x="498" y="970"/>
      <point x="658" y="1204"/>
      <point x="815" y="1439" type="curve"/>
      <point x="815" y="1456" type="line"/>
      <point x="725" y="1456" type="line"/>
      <point x="430" y="1015" type="line" smooth="yes"/>
      <point x="280" y="790"/>
      <point x="193" y="657"/>
      <point x="193" y="425" type="curve" smooth="yes"/>
      <point x="193" y="216"/>
      <point x="325" y="-20"/>
    </contour>
    <contour>
      <point x="626" y="56" type="curve" smooth="yes"/>
      <point x="391" y="56"/>
      <point x="276" y="231"/>
      <point x="276" y="414" type="curve" smooth="yes"/>
      <point x="276" y="712"/>
      <point x="533" y="764"/>
      <point x="634" y="764" type="curve" smooth="yes"/>
      <point x="849" y="764"/>
      <point x="981" y="616"/>
      <point x="981" y="423" type="curve" smooth="yes"/>
      <point x="981" y="236"/>
      <point x="857" y="56"/>
    </contour>
  </outline>
</glyph>
<glyph name="seven" format="1">
  <advance width="1200"/>
  <unicode hex="0037"/>
  <outline>
    <contour>
      <point x="387" y="0" type="line"/>
      <point x="467" y="0" type="line"/>
      <point x="1028" y="1384" type="line"/>
      <point x="1028" y="1456" type="line"/>
      <point x="206" y="1456" type="line"/>
      <point x="238" y="1387" type="line"/>
      <point x="946" y="1387" type="line"/>
    </contour>
  </outline>
</glyph>
<glyph name="semicolon" format="1">
  <advance width="468"/>
  <unicode hex="003B"/>
  <outline>
    <contour>
      <point x="177" y="-293" type="curve"/>
      <point x="216" y="-293" type="line"/>
      <point x="216" y="-293"/>
      <point x="296" y="119"/>
      <point x="296" y="168" type="curve" smooth="yes"/>
      <point x="296" y="196" type="line"/>
      <point x="183" y="196" type="line"/>
      <point x="183" y="74"/>
      <point x="177" y="-293"/>
    </contour>
    <contour>
      <point x="239" y="883" type="curve" smooth="yes"/>
      <point x="304" y="883"/>
      <point x="317" y="927"/>
      <point x="317" y="962" type="curve" smooth="yes"/>
      <point x="317" y="997"/>
      <point x="304" y="1040"/>
      <point x="239" y="1040" type="curve" smooth="yes"/>
      <point x="171" y="1040"/>
      <point x="159" y="997"/>
      <point x="159" y="962" type="curve" smooth="yes"/>
      <point x="159" y="928"/>
      <point x="173" y="883"/>
    </contour>
  </outline>
</glyph>
<glyph name="less" format="1">
  <advance width="1219"/>
  <unicode hex="003C"/>
  <outline>
    <contour>
      <point x="1049" y="106" type="line"/>
      <point x="1052" y="187" type="line"/>
      <point x="204" y="586" type="line"/>
      <point x="1053" y="1007" type="line"/>
      <point x="1053" y="1096" type="line"/>
      <point x="114" y="612" type="line"/>
      <point x="114" y="554" type="line"/>
    </contour>
  </outline>
</glyph>
<glyph name="greater" format="1">
  <advance width="1234"/>
  <unicode hex="003E"/>
  <outline>
    <contour>
      <point x="148" y="1017" type="line"/>
      <point x="981" y="586" type="line"/>
      <point x="144" y="197" type="line"/>
      <point x="144" y="114" type="line"/>
      <point x="1083" y="552" type="line"/>
      <point x="1083" y="612" type="line"/>
      <point x="148" y="1105" type="line"/>
    </contour>
  </outline>
</glyph>
<glyph name="at" format="1">
  <advance width="2133"/>
  <unicode hex="0040"/>
  <outline>
    <contour>
      <point x="1041" y="-254" type="curve" smooth="yes"/>
      <point x="1247" y="-254"/>
      <point x="1429" y="-204"/>
      <point x="1569" y="-110" type="curve"/>
      <point x="1539" y="-50" type="line"/>
      <point x="1396" y="-137"/>
      <point x="1224" y="-182"/>
      <point x="1046" y="-182" type="curve" smooth="yes"/>
      <point x="627" y="-182"/>
      <point x="303" y="82"/>
      <point x="303" y="591" type="curve" smooth="yes"/>
      <point x="303" y="1092"/>
      <point x="667" y="1436"/>
      <point x="1112" y="1436" type="curve" smooth="yes"/>
      <point x="1521" y="1436"/>
      <point x="1823" y="1164"/>
      <point x="1823" y="746" type="curve" smooth="yes"/>
      <point x="1823" y="501"/>
      <point x="1706" y="273"/>
      <point x="1526" y="273" type="curve" smooth="yes"/>
      <point x="1404" y="273"/>
      <point x="1358" y="378"/>
      <point x="1358" y="489" type="curve" smooth="yes"/>
      <point x="1358" y="623"/>
      <point x="1369" y="730"/>
      <point x="1422" y="1032" type="curve"/>
      <point x="1330" y="1061"/>
      <point x="1227" y="1091"/>
      <point x="1123" y="1091" type="curve" smooth="yes"/>
      <point x="828" y="1091"/>
      <point x="663" y="858"/>
      <point x="663" y="559" type="curve" smooth="yes"/>
      <point x="663" y="316"/>
      <point x="781" y="184"/>
      <point x="965" y="184" type="curve" smooth="yes"/>
      <point x="1122" y="184"/>
      <point x="1234" y="306"/>
      <point x="1290" y="489" type="curve"/>
      <point x="1309" y="275"/>
      <point x="1429" y="211"/>
      <point x="1526" y="211" type="curve" smooth="yes"/>
      <point x="1710" y="211"/>
      <point x="1905" y="388"/>
      <point x="1905" y="746" type="curve" smooth="yes"/>
      <point x="1905" y="1220"/>
      <point x="1569" y="1511"/>
      <point x="1113" y="1511" type="curve" smooth="yes"/>
      <point x="582" y="1511"/>
      <point x="209" y="1121"/>
      <point x="209" y="589" type="curve" smooth="yes"/>
      <point x="209" y="57"/>
      <point x="531" y="-254"/>
    </contour>
    <contour>
      <point x="979" y="259" type="curve" smooth="yes"/>
      <point x="853" y="259"/>
      <point x="764" y="347"/>
      <point x="763" y="563" type="curve" smooth="yes"/>
      <point x="763" y="845"/>
      <point x="913" y="1024"/>
      <point x="1132" y="1024" type="curve" smooth="yes"/>
      <point x="1170" y="1024"/>
      <point x="1261" y="1008"/>
      <point x="1322" y="994" type="curve"/>
      <point x="1267" y="681" type="line" smooth="yes"/>
      <point x="1230" y="467"/>
      <point x="1143" y="259"/>
    </contour>
  </outline>
</glyph>
<glyph name="B" format="1">
  <advance width="1366"/>
  <unicode hex="0042"/>
  <outline>
    <contour>
      <point x="685" y="1456" type="move" name="top"/>
    </contour>
    <contour>
      <point x="314" y="729" type="line"/>
      <point x="647" y="729" type="line" smooth="yes"/>
      <point x="988" y="729"/>
      <point x="1151" y="652"/>
      <point x="1151" y="393" type="curve" smooth="yes"/>
      <point x="1151" y="148"/>
      <point x="1070" y="59"/>
      <point x="600" y="59" type="curve" smooth="yes"/>
      <point x="517" y="59"/>
      <point x="422" y="62"/>
      <point x="314" y="67" type="curve"/>
    </contour>
    <contour>
      <point x="314" y="1386" type="line"/>
      <point x="412" y="1390"/>
      <point x="499" y="1393"/>
      <point x="574" y="1393" type="curve" smooth="yes"/>
      <point x="989" y="1393"/>
      <point x="1098" y="1324"/>
      <point x="1098" y="1098" type="curve" smooth="yes"/>
      <point x="1098" y="851"/>
      <point x="941" y="803"/>
      <point x="730" y="803" type="curve" smooth="yes"/>
      <point x="314" y="803" type="line"/>
    </contour>
    <contour>
      <point x="571" y="-13" type="curve" smooth="yes"/>
      <point x="1135" y="-13"/>
      <point x="1244" y="130"/>
      <point x="1244" y="400" type="curve" smooth="yes"/>
      <point x="1244" y="595"/>
      <point x="1135" y="716"/>
      <point x="916" y="761" type="curve"/>
      <point x="1138" y="825"/>
      <point x="1182" y="942"/>
      <point x="1182" y="1104" type="curve" smooth="yes"/>
      <point x="1182" y="1342"/>
      <point x="1068" y="1467"/>
      <point x="552" y="1467" type="curve" smooth="yes"/>
      <point x="456" y="1467"/>
      <point x="347" y="1463"/>
      <point x="222" y="1454" type="curve"/>
      <point x="222" y="0" type="line"/>
      <point x="354" y="-9"/>
      <point x="469" y="-13"/>
    </contour>
  </outline>
</glyph>
<glyph name="D" format="1">
  <advance width="1525"/>
  <unicode hex="0044"/>
  <outline>
    <contour>
      <point x="762" y="1455" type="move" name="top"/>
    </contour>
    <contour>
      <point x="765" y="0" type="move" name="bot"/>
    </contour>
    <contour>
      <point x="314" y="66" type="curve"/>
      <point x="314" y="1388" type="line"/>
      <point x="385" y="1392"/>
      <point x="451" y="1394"/>
      <point x="513" y="1394" type="curve" smooth="yes"/>
      <point x="1112" y="1394"/>
      <point x="1285" y="1206"/>
      <point x="1285" y="724" type="curve" smooth="yes"/>
      <point x="1285" y="273"/>
      <point x="1115" y="58"/>
      <point x="524" y="58" type="curve" smooth="yes"/>
      <point x="459" y="58"/>
      <point x="389" y="61"/>
    </contour>
    <contour>
      <point x="222" y="0" type="line"/>
      <point x="319" y="-6"/>
      <point x="408" y="-10"/>
      <point x="490" y="-10" type="curve" smooth="yes"/>
      <point x="1180" y="-10"/>
      <point x="1378" y="221"/>
      <point x="1378" y="729" type="curve" smooth="yes"/>
      <point x="1378" y="1241"/>
      <point x="1190" y="1468"/>
      <point x="530" y="1468" type="curve" smooth="yes"/>
      <point x="437" y="1468"/>
      <point x="335" y="1464"/>
      <point x="222" y="1455" type="curve"/>
    </contour>
  </outline>
</glyph>
<glyph name="E" format="1">
  <advance width="1135"/>
  <unicode hex="0045"/>
  <outline>
    <contour>
      <point x="662" y="1455" type="move" name="top"/>
    </contour>
    <contour>
      <point x="572" y="0" type="move" name="bot"/>
    </contour>
    <contour>
      <point x="222" y="1455" type="line"/>
      <point x="222" y="0" type="line"/>
      <point x="1069" y="0" type="line"/>
      <point x="1077" y="69" type="line"/>
      <point x="314" y="69" type="line"/>
      <point x="314" y="710" type="line"/>
      <point x="991" y="710" type="line"/>
      <point x="991" y="780" type="line"/>
      <point x="314" y="780" type="line"/>
      <point x="314" y="1384" type="line"/>
      <point x="1075" y="1384" type="line"/>
      <point x="1077" y="1455" type="line"/>
    </contour>
  </outline>
</glyph>
<glyph name="G" format="1">
  <advance width="1487"/>
  <unicode hex="0047"/>
  <outline>
    <contour>
      <point x="855" y="1455" type="move" name="top"/>
    </contour>
    <contour>
      <point x="861" y="0" type="move" name="bot"/>
    </contour>
    <contour>
      <point x="853" y="-18" type="curve" smooth="yes"/>
      <point x="1052" y="-18"/>
      <point x="1185" y="11"/>
      <point x="1326" y="60" type="curve"/>
      <point x="1326" y="716" type="line"/>
      <point x="897" y="716" type="line"/>
      <point x="885" y="631" type="line"/>
      <point x="1233" y="631" type="line"/>
      <point x="1233" y="101" type="line"/>
      <point x="1152" y="77"/>
      <point x="1006" y="53"/>
      <point x="872" y="53" type="curve" smooth="yes"/>
      <point x="459" y="53"/>
      <point x="240" y="320"/>
      <point x="240" y="721" type="curve" smooth="yes"/>
      <point x="240" y="1165"/>
      <point x="531" y="1400"/>
      <point x="866" y="1400" type="curve" smooth="yes"/>
      <point x="1004" y="1400"/>
      <point x="1141" y="1361"/>
      <point x="1263" y="1286" type="curve"/>
      <point x="1273" y="1286" type="line"/>
      <point x="1302" y="1353" type="line"/>
      <point x="1159" y="1434"/>
      <point x="1006" y="1473"/>
      <point x="859" y="1473" type="curve" smooth="yes"/>
      <point x="466" y="1473"/>
      <point x="147" y="1188"/>
      <point x="147" y="720" type="curve" smooth="yes"/>
      <point x="147" y="313"/>
      <point x="384" y="-18"/>
    </contour>
  </outline>
</glyph>
<glyph name="H" format="1">
  <advance width="1491"/>
  <unicode hex="0048"/>
  <outline>
    <contour>
      <point x="747" y="1455" type="move" name="top"/>
    </contour>
    <contour>
      <point x="1180" y="717" type="line"/>
      <point x="1180" y="0" type="line"/>
      <point x="1272" y="0" type="line"/>
      <point x="1272" y="1455" type="line"/>
      <point x="1180" y="1455" type="line"/>
      <point x="1180" y="778" type="line"/>
      <point x="311" y="778" type="line"/>
      <point x="311" y="1455" type="line"/>
      <point x="218" y="1455" type="line"/>
      <point x="218" y="0" type="line"/>
      <point x="311" y="0" type="line"/>
      <point x="311" y="717" type="line"/>
    </contour>
  </outline>
</glyph>
<glyph name="I" format="1">
  <advance width="751"/>
  <unicode hex="0049"/>
  <outline>
    <contour>
      <point x="375" y="1455" type="move" name="top"/>
    </contour>
    <contour>
      <point x="119" y="1455" type="line"/>
      <point x="119" y="1397" type="line"/>
      <point x="330" y="1397" type="line"/>
      <point x="330" y="58" type="line"/>
      <point x="119" y="58" type="line"/>
      <point x="119" y="0" type="line"/>
      <point x="633" y="0" type="line"/>
      <point x="633" y="58" type="line"/>
      <point x="423" y="58" type="line"/>
      <point x="423" y="1397" type="line"/>
      <point x="633" y="1397" type="line"/>
      <point x="633" y="1455" type="line"/>
    </contour>
  </outline>
</glyph>
<glyph name="K" format="1">
  <advance width="1241"/>
  <unicode hex="004B"/>
  <outline>
    <contour>
      <point x="623" y="1455" type="move" name="top"/>
    </contour>
    <contour>
      <point x="623" y="0" type="move" name="bot"/>
    </contour>
    <contour>
      <point x="1139" y="1456" type="line"/>
      <point x="1035" y="1456" type="line"/>
      <point x="314" y="724" type="line"/>
      <point x="314" y="1456" type="line"/>
      <point x="222" y="1456" type="line"/>
      <point x="222" y="0" type="line"/>
      <point x="314" y="0" type="line"/>
      <point x="314" y="639" type="line"/>
      <point x="441" y="764" type="line"/>
      <point x="1076" y="0" type="line"/>
      <point x="1180" y="0" type="line"/>
      <point x="1180" y="7" type="line"/>
      <point x="514" y="809" type="line"/>
      <point x="1139" y="1449" type="line"/>
    </contour>
  </outline>
</glyph>
<glyph name="L" format="1">
  <advance width="1081"/>
  <unicode hex="004C"/>
  <outline>
    <contour>
      <point x="533" y="1455" type="move" name="top"/>
    </contour>
    <contour>
      <point x="635" y="0" type="move" name="bot"/>
    </contour>
    <contour>
      <point x="222" y="1455" type="line"/>
      <point x="222" y="0" type="line"/>
      <point x="1020" y="0" type="line"/>
      <point x="1017" y="69" type="line"/>
      <point x="314" y="69" type="line"/>
      <point x="314" y="1455" type="line"/>
    </contour>
  </outline>
</glyph>
<glyph name="M" format="1">
  <advance width="1765"/>
  <unicode hex="004D"/>
  <outline>
    <contour>
      <point x="884" y="1455" type="move" name="top"/>
    </contour>
    <contour>
      <point x="205" y="0" type="line"/>
      <point x="289" y="0" type="line"/>
      <point x="289" y="581" type="line"/>
      <point x="301" y="1370" type="line"/>
      <point x="845" y="134" type="line"/>
      <point x="926" y="134" type="line"/>
      <point x="1467" y="1359" type="line"/>
      <point x="1478" y="583" type="line"/>
      <point x="1478" y="0" type="line"/>
      <point x="1563" y="0" type="line"/>
      <point x="1563" y="581" type="line"/>
      <point x="1543" y="1455" type="line"/>
      <point x="1422" y="1455" type="line"/>
      <point x="886" y="227" type="line"/>
      <point x="350" y="1455" type="line"/>
      <point x="220" y="1455" type="line"/>
      <point x="205" y="581" type="line"/>
    </contour>
  </outline>
</glyph>
<glyph name="N" format="1">
  <advance width="1541"/>
  <unicode hex="004E"/>
  <outline>
    <contour>
      <point x="773" y="1455" type="move" name="top"/>
    </contour>
    <contour>
      <point x="772" y="0" type="move" name="bot"/>
    </contour>
    <contour>
      <point x="1246" y="1455" type="line"/>
      <point x="1246" y="472" type="line"/>
      <point x="1252" y="110" type="line"/>
      <point x="299" y="1455" type="line"/>
      <point x="222" y="1455" type="line"/>
      <point x="222" y="0" type="line"/>
      <point x="297" y="0" type="line"/>
      <point x="297" y="992" type="line"/>
      <point x="288" y="1344" type="line"/>
      <point x="1240" y="0" type="line"/>
      <point x="1320" y="0" type="line"/>
      <point x="1320" y="1455" type="line"/>
    </contour>
  </outline>
</glyph>
<glyph name="O" format="1">
  <advance width="1644"/>
  <unicode hex="004F"/>
  <outline>
    <contour>
      <point x="822" y="1455" type="move" name="top"/>
    </contour>
    <contour>
      <point x="148" y="714" type="curve" smooth="yes"/>
      <point x="148" y="283"/>
      <point x="356" y="-19"/>
      <point x="826" y="-19" type="curve" smooth="yes"/>
      <point x="1286" y="-19"/>
      <point x="1497" y="292"/>
      <point x="1497" y="710" type="curve" smooth="yes"/>
      <point x="1497" y="1157"/>
      <point x="1268" y="1474"/>
      <point x="827" y="1474" type="curve" smooth="yes"/>
      <point x="370" y="1474"/>
      <point x="148" y="1163"/>
    </contour>
    <contour>
      <point x="1404" y="714" type="curve" smooth="yes"/>
      <point x="1404" y="328"/>
      <point x="1246" y="50"/>
      <point x="823" y="50" type="curve" smooth="yes"/>
      <point x="401" y="50"/>
      <point x="241" y="328"/>
      <point x="241" y="714" type="curve" smooth="yes"/>
      <point x="241" y="1124"/>
      <point x="418" y="1405"/>
      <point x="826" y="1405" type="curve" smooth="yes"/>
      <point x="1234" y="1405"/>
      <point x="1404" y="1120"/>
    </contour>
  </outline>
</glyph>
<glyph name="S" format="1">
  <advance width="1192"/>
  <unicode hex="0053"/>
  <outline>
    <contour>
      <point x="615" y="1457" type="move" name="top"/>
    </contour>
    <contour>
      <point x="619" y="0" type="move" name="bot"/>
    </contour>
    <contour>
      <point x="995" y="388" type="curve" smooth="yes"/>
      <point x="995" y="141"/>
      <point x="847" y="50"/>
      <point x="599" y="50" type="curve" smooth="yes"/>
      <point x="394" y="50"/>
      <point x="295" y="108"/>
      <point x="199" y="195" type="curve"/>
      <point x="192" y="195" type="line"/>
      <point x="151" y="144" type="line"/>
      <point x="191" y="103"/>
      <point x="312" y="-19"/>
      <point x="599" y="-19" type="curve" smooth="yes"/>
      <point x="854" y="-19"/>
      <point x="1074" y="75"/>
      <point x="1074" y="391" type="curve" smooth="yes"/>
      <point x="1074" y="629"/>
      <point x="905" y="691"/>
      <point x="725" y="764" type="curve"/>
      <point x="493" y="860" type="line" smooth="yes"/>
      <point x="304" y="938"/>
      <point x="248" y="970"/>
      <point x="248" y="1133" type="curve" smooth="yes"/>
      <point x="248" y="1346"/>
      <point x="464" y="1411"/>
      <point x="642" y="1411" type="curve" smooth="yes"/>
      <point x="813" y="1411"/>
      <point x="915" y="1333"/>
      <point x="965" y="1294" type="curve"/>
      <point x="974" y="1294" type="line"/>
      <point x="1006" y="1345" type="line"/>
      <point x="951" y="1398"/>
      <point x="812" y="1474"/>
      <point x="640" y="1474" type="curve" smooth="yes"/>
      <point x="437" y="1474"/>
      <point x="164" y="1411"/>
      <point x="164" y="1118" type="curve" smooth="yes"/>
      <point x="164" y="921"/>
      <point x="280" y="866"/>
      <point x="472" y="789" type="curve"/>
      <point x="705" y="693" type="line"/>
      <point x="928" y="604"/>
      <point x="995" y="548"/>
    </contour>
  </outline>
</glyph>
<glyph name="T" format="1">
  <advance width="1123"/>
  <unicode hex="0054"/>
  <outline>
    <contour>
      <point x="562" y="1455" type="move" name="top"/>
    </contour>
    <contour>
      <point x="562" y="0" type="move" name="bot"/>
    </contour>
    <contour>
      <point x="53" y="1455" type="line"/>
      <point x="53" y="1396" type="line"/>
      <point x="512" y="1396" type="line"/>
      <point x="512" y="0" type="line"/>
      <point x="604" y="0" type="line"/>
      <point x="604" y="1396" type="line"/>
      <point x="1070" y="1396" type="line"/>
      <point x="1070" y="1455" type="line"/>
    </contour>
  </outline>
</glyph>
<glyph name="V" format="1">
  <advance width="1341"/>
  <unicode hex="0056"/>
  <outline>
    <contour>
      <point x="656" y="0" type="line"/>
      <point x="686" y="0" type="line"/>
      <point x="1268" y="1455" type="line"/>
      <point x="1179" y="1455" type="line"/>
      <point x="1009" y="1018"/>
      <point x="846" y="575"/>
      <point x="669" y="146" type="curve"/>
      <point x="491" y="573"/>
      <point x="331" y="1018"/>
      <point x="163" y="1455" type="curve"/>
      <point x="74" y="1455" type="line"/>
    </contour>
  </outline>
</glyph>
<glyph name="X" format="1">
  <advance width="1306"/>
  <unicode hex="0058"/>
  <outline>
    <contour>
      <point x="697" y="722" type="line"/>
      <point x="1172" y="1455" type="line"/>
      <point x="1081" y="1455" type="line"/>
      <point x="656" y="785" type="line"/>
      <point x="217" y="1455" type="line"/>
      <point x="130" y="1455" type="line"/>
      <point x="607" y="729" type="line"/>
      <point x="114" y="0" type="line"/>
      <point x="208" y="0" type="line"/>
      <point x="650" y="664" type="line"/>
      <point x="1086" y="0" type="line"/>
      <point x="1169" y="0" type="line"/>
    </contour>
  </outline>
</glyph>
<glyph name="bracketleft" format="1">
  <advance width="632"/>
  <unicode hex="005B"/>
  <outline>
    <contour>
      <point x="182" y="-225" type="line"/>
      <point x="607" y="-225" type="line"/>
      <point x="607" y="-158" type="line"/>
      <point x="269" y="-158" type="line"/>
      <point x="269" y="1489" type="line"/>
      <point x="607" y="1489" type="line"/>
      <point x="607" y="1558" type="line"/>
      <point x="182" y="1558" type="line"/>
    </contour>
  </outline>
</glyph>
<glyph name="bracketright" format="1">
  <advance width="646"/>
  <unicode hex="005D"/>
  <outline>
    <contour>
      <point x="66" y="-225" type="line"/>
      <point x="489" y="-225" type="line"/>
      <point x="489" y="1558" type="line"/>
      <point x="66" y="1558" type="line"/>
      <point x="66" y="1489" type="line"/>
      <point x="402" y="1489" type="line"/>
      <point x="402" y="-157" type="line"/>
      <point x="66" y="-157" type="line"/>
    </contour>
  </outline>
</glyph>
<glyph name="asciicircum" format="1">
  <advance width="1249"/>
  <unicode hex="005E"/>
  <outline>
    <contour>
      <point x="582" y="1456" type="line"/>
      <point x="158" y="361" type="line"/>
      <point x="224" y="361" type="line"/>
      <point x="617" y="1386" type="line"/>
      <point x="1021" y="361" type="line"/>
      <point x="1091" y="361" type="line"/>
      <point x="646" y="1456" type="line"/>
    </contour>
  </outline>
</glyph>
<glyph name="grave" format="1">
  <advance width="804"/>
  <unicode hex="0060"/>
  <outline>
    <contour>
      <point x="389" y="1210" type="line"/>
      <point x="443" y="1210" type="line"/>
      <point x="229" y="1561" type="line"/>
      <point x="108" y="1561" type="line"/>
    </contour>
    <contour>
      <point x="403" y="1053" type="move" name="_top"/>
    </contour>
  </outline>
</glyph>
<glyph name="a" format="1">
  <advance width="1116"/>
  <unicode hex="0061"/>
  <outline>
    <contour>
      <point x="542" y="1082" type="move" name="top"/>
    </contour>
    <contour>
      <point x="545" y="0" type="move" name="bot"/>
    </contour>
    <contour>
      <point x="840" y="607" type="line"/>
      <point x="640" y="610" type="line"/>
      <point x="621" y="610" type="line" smooth="yes"/>
      <point x="257" y="610"/>
      <point x="118" y="494"/>
      <point x="118" y="276" type="curve" smooth="yes"/>
      <point x="118" y="95"/>
      <point x="251" y="-14"/>
      <point x="445" y="-14" type="curve" smooth="yes"/>
      <point x="567" y="-14"/>
      <point x="716" y="7"/>
      <point x="850" y="180" type="curve"/>
      <point x="866" y="1" type="line"/>
      <point x="936" y="1" type="line"/>
      <point x="936" y="733" type="line" smooth="yes"/>
      <point x="936" y="1012"/>
      <point x="779" y="1102"/>
      <point x="542" y="1102" type="curve" smooth="yes"/>
      <point x="420" y="1102"/>
      <point x="258" y="1060"/>
      <point x="181" y="1015" type="curve"/>
      <point x="218" y="944" type="line"/>
      <point x="311" y="1000"/>
      <point x="436" y="1030"/>
      <point x="547" y="1030" type="curve" smooth="yes"/>
      <point x="740" y="1030"/>
      <point x="840" y="932"/>
      <point x="840" y="752" type="curve" smooth="yes"/>
    </contour>
    <contour>
      <point x="450" y="59" type="curve" smooth="yes"/>
      <point x="325" y="59"/>
      <point x="217" y="127"/>
      <point x="217" y="277" type="curve" smooth="yes"/>
      <point x="217" y="448"/>
      <point x="279" y="543"/>
      <point x="632" y="543" type="curve" smooth="yes"/>
      <point x="649" y="543" type="line"/>
      <point x="840" y="541" type="line"/>
      <point x="840" y="262" type="line"/>
      <point x="715" y="92"/>
      <point x="586" y="59"/>
    </contour>
  </outline>
</glyph>
<glyph name="e" format="1">
  <advance width="1122"/>
  <unicode hex="0065"/>
  <outline>
    <contour>
      <point x="583" y="1082" type="move" name="top"/>
    </contour>
    <contour>
      <point x="607" y="0" type="move" name="bot"/>
    </contour>
    <contour>
      <point x="610" y="-20" type="curve" smooth="yes"/>
      <point x="762" y="-20"/>
      <point x="874" y="19"/>
      <point x="974" y="73" type="curve"/>
      <point x="941" y="138" type="line"/>
      <point x="930" y="138" type="line"/>
      <point x="830" y="83"/>
      <point x="730" y="54"/>
      <point x="622" y="54" type="curve" smooth="yes"/>
      <point x="405" y="54"/>
      <point x="225" y="205"/>
      <point x="216" y="546" type="curve"/>
      <point x="992" y="546" type="line"/>
      <point x="992" y="546"/>
      <point x="997" y="579"/>
      <point x="997" y="612" type="curve" smooth="yes"/>
      <point x="997" y="918"/>
      <point x="856" y="1102"/>
      <point x="606" y="1102" type="curve" smooth="yes"/>
      <point x="352.415" y="1102"/>
      <point x="124" y="903.277"/>
      <point x="124" y="537" type="curve" smooth="yes"/>
      <point x="124" y="203"/>
      <point x="325" y="-20"/>
    </contour>
    <contour>
      <point x="221" y="608" type="line"/>
      <point x="244" y="854"/>
      <point x="385" y="1030"/>
      <point x="614" y="1030" type="curve" smooth="yes"/>
      <point x="825" y="1030"/>
      <point x="914" y="884"/>
      <point x="921" y="608" type="curve"/>
    </contour>
  </outline>
</glyph>
<glyph name="f" format="1">
  <advance width="730"/>
  <unicode hex="0066"/>
  <outline>
    <contour>
      <point x="435" y="1455" type="move" name="top"/>
    </contour>
    <contour>
      <point x="393" y="1082" type="line"/>
      <point x="393" y="1173" type="line" smooth="yes"/>
      <point x="393" y="1419"/>
      <point x="460" y="1447"/>
      <point x="574" y="1447" type="curve" smooth="yes"/>
      <point x="621" y="1447"/>
      <point x="685" y="1438"/>
      <point x="685" y="1438" type="curve"/>
      <point x="689" y="1498" type="line"/>
      <point x="679" y="1500"/>
      <point x="625" y="1512"/>
      <point x="555" y="1512" type="curve" smooth="yes"/>
      <point x="382" y="1512"/>
      <point x="295" y="1415"/>
      <point x="295" y="1171" type="curve" smooth="yes"/>
      <point x="295" y="1081" type="line"/>
      <point x="81" y="1065" type="line"/>
      <point x="76" y="1031" type="line"/>
      <point x="295" y="1031" type="line"/>
      <point x="295" y="0" type="line"/>
      <point x="393" y="0" type="line"/>
      <point x="393" y="1031" type="line"/>
      <point x="647" y="1031" type="line"/>
      <point x="647" y="1082" type="line"/>
    </contour>
  </outline>
</glyph>
<glyph name="l" format="1">
  <advance width="588"/>
  <unicode hex="006C"/>
  <outline>
    <contour>
      <point x="344" y="1458" type="move" name="top"/>
    </contour>
    <contour>
      <point x="434" y="-10" type="curve" smooth="yes"/>
      <point x="492" y="-10"/>
      <point x="542" y="-7"/>
      <point x="565" y="-4" type="curve"/>
      <point x="566" y="61" type="line"/>
      <point x="555" y="59"/>
      <point x="502" y="56"/>
      <point x="452" y="56" type="curve" smooth="yes"/>
      <point x="322" y="56"/>
      <point x="288" y="126"/>
      <point x="288" y="244" type="curve" smooth="yes"/>
      <point x="288" y="1560" type="line"/>
      <point x="191" y="1540" type="line"/>
      <point x="191" y="244" type="line" smooth="yes"/>
      <point x="191" y="27"/>
      <point x="329" y="-10"/>
    </contour>
  </outline>
</glyph>
<glyph name="m" format="1">
  <advance width="1781"/>
  <unicode hex="006D"/>
  <outline>
    <contour>
      <point x="934" y="1082" type="move" name="top"/>
    </contour>
    <contour>
      <point x="187" y="0" type="line"/>
      <point x="285" y="0" type="line"/>
      <point x="285" y="671" type="line"/>
      <point x="287" y="841"/>
      <point x="369" y="1032"/>
      <point x="625" y="1032" type="curve" smooth="yes"/>
      <point x="808" y="1032"/>
      <point x="848" y="909"/>
      <point x="848" y="716" type="curve" smooth="yes"/>
      <point x="848" y="0" type="line"/>
      <point x="946" y="0" type="line"/>
      <point x="946" y="671" type="line"/>
      <point x="947" y="842"/>
      <point x="1034" y="1032"/>
      <point x="1286" y="1032" type="curve" smooth="yes"/>
      <point x="1471" y="1032"/>
      <point x="1509" y="907"/>
      <point x="1509" y="717" type="curve" smooth="yes"/>
      <point x="1509" y="0" type="line"/>
      <point x="1606" y="0" type="line"/>
      <point x="1606" y="662" type="line" smooth="yes"/>
      <point x="1606" y="967"/>
      <point x="1519" y="1102"/>
      <point x="1289" y="1102" type="curve" smooth="yes"/>
      <point x="1120" y="1102"/>
      <point x="983" y="1028"/>
      <point x="924" y="861" type="curve"/>
      <point x="887" y="1012"/>
      <point x="794" y="1102"/>
      <point x="628" y="1102" type="curve" smooth="yes"/>
      <point x="472" y="1102"/>
      <point x="355" y="1035"/>
      <point x="280" y="901" type="curve"/>
      <point x="268" y="1082" type="line"/>
      <point x="187" y="1082" type="line"/>
    </contour>
  </outline>
</glyph>
<glyph name="o" format="1">
  <advance width="1199"/>
  <unicode hex="006F"/>
  <outline>
    <contour>
      <point x="603" y="1082" type="move" name="top"/>
    </contour>
    <contour>
      <point x="600" y="49" type="curve" smooth="yes"/>
      <point x="367" y="49"/>
      <point x="218" y="257"/>
      <point x="218" y="539" type="curve" smooth="yes"/>
      <point x="218" y="839"/>
      <point x="367" y="1033"/>
      <point x="600" y="1033" type="curve" smooth="yes"/>
      <point x="832" y="1033"/>
      <point x="982" y="838"/>
      <point x="982" y="538" type="curve" smooth="yes"/>
      <point x="982" y="257"/>
      <point x="832" y="49"/>
    </contour>
    <contour>
      <point x="600" y="-20" type="curve" smooth="yes"/>
      <point x="889" y="-20"/>
      <point x="1079" y="216"/>
      <point x="1079" y="541" type="curve" smooth="yes"/>
      <point x="1079" y="881"/>
      <point x="889" y="1102"/>
      <point x="600" y="1102" type="curve" smooth="yes"/>
      <point x="310" y="1102"/>
      <point x="120" y="881"/>
      <point x="120" y="541" type="curve" smooth="yes"/>
      <point x="120" y="216"/>
      <point x="310" y="-20"/>
    </contour>
  </outline>
</glyph>
<glyph name="p" format="1">
  <advance width="1233"/>
  <unicode hex="0070"/>
  <outline>
    <contour>
      <point x="658" y="1082" type="move" name="top"/>
    </contour>
    <contour>
      <point x="187" y="-489" type="line"/>
      <point x="284" y="-482" type="line"/>
      <point x="284" y="-100" type="line"/>
      <point x="273" y="196" type="line"/>
      <point x="342" y="54"/>
      <point x="477" y="-20"/>
      <point x="647" y="-20" type="curve" smooth="yes"/>
      <point x="926" y="-20"/>
      <point x="1113" y="185"/>
      <point x="1113" y="537" type="curve" smooth="yes"/>
      <point x="1113" y="910"/>
      <point x="935" y="1102"/>
      <point x="655" y="1102" type="curve" smooth="yes"/>
      <point x="450" y="1102"/>
      <point x="328" y="981"/>
      <point x="272" y="826" type="curve"/>
      <point x="261" y="1082" type="line"/>
      <point x="187" y="1082" type="line"/>
    </contour>
    <contour>
      <point x="646" y="50" type="curve" smooth="yes"/>
      <point x="438" y="50"/>
      <point x="325" y="164"/>
      <point x="279" y="334" type="curve"/>
      <point x="279" y="557" type="line" smooth="yes"/>
      <point x="279" y="815"/>
      <point x="381" y="1032"/>
      <point x="653" y="1032" type="curve" smooth="yes"/>
      <point x="889" y="1032"/>
      <point x="1015" y="864"/>
      <point x="1015" y="537" type="curve" smooth="yes"/>
      <point x="1015" y="230"/>
      <point x="882" y="50"/>
    </contour>
  </outline>
</glyph>
<glyph name="q" format="1">
  <advance width="1232"/>
  <unicode hex="0071"/>
  <outline>
    <contour>
      <point x="948" y="-490" type="line"/>
      <point x="1045" y="-486" type="line"/>
      <point x="1045" y="1082" type="line"/>
      <point x="964" y="1082" type="line"/>
      <point x="955" y="881" type="line"/>
      <point x="908" y="995"/>
      <point x="801" y="1102"/>
      <point x="604" y="1102" type="curve" smooth="yes"/>
      <point x="297" y="1102"/>
      <point x="119" y="874"/>
      <point x="119" y="542" type="curve" smooth="yes"/>
      <point x="119" y="213"/>
      <point x="307" y="-20"/>
      <point x="594" y="-20" type="curve" smooth="yes"/>
      <point x="785" y="-20"/>
      <point x="897" y="82"/>
      <point x="954" y="172" type="curve"/>
      <point x="948" y="-132" type="line"/>
    </contour>
    <contour>
      <point x="594" y="50" type="curve" smooth="yes"/>
      <point x="357" y="50"/>
      <point x="219" y="239"/>
      <point x="219" y="542" type="curve" smooth="yes"/>
      <point x="219" y="845"/>
      <point x="363" y="1032"/>
      <point x="597" y="1032" type="curve" smooth="yes"/>
      <point x="755" y="1032"/>
      <point x="882" y="950"/>
      <point x="948" y="780" type="curve"/>
      <point x="948" y="278" type="line"/>
      <point x="894" y="138"/>
      <point x="764" y="50"/>
    </contour>
  </outline>
</glyph>
<glyph name="s" format="1">
  <advance width="932"/>
  <unicode hex="0073"/>
  <outline>
    <contour>
      <point x="494" y="1082" type="move" name="top"/>
    </contour>
    <contour>
      <point x="481" y="0" type="move" name="bot"/>
    </contour>
    <contour>
      <point x="182" y="123" type="line"/>
      <point x="151" y="63" type="line"/>
      <point x="256" y="4"/>
      <point x="376" y="-20"/>
      <point x="479" y="-20" type="curve" smooth="yes"/>
      <point x="678" y="-20"/>
      <point x="820" y="73"/>
      <point x="821" y="267" type="curve" smooth="yes"/>
      <point x="821" y="431"/>
      <point x="752" y="511"/>
      <point x="549" y="574" type="curve"/>
      <point x="393" y="625" type="line" smooth="yes"/>
      <point x="268" y="665"/>
      <point x="214" y="731"/>
      <point x="214" y="835" type="curve" smooth="yes"/>
      <point x="214" y="973"/>
      <point x="348" y="1031"/>
      <point x="494" y="1031" type="curve" smooth="yes"/>
      <point x="581" y="1031"/>
      <point x="667" y="1010"/>
      <point x="726" y="974" type="curve"/>
      <point x="737" y="974" type="line"/>
      <point x="764" y="1035" type="line"/>
      <point x="706" y="1071"/>
      <point x="598" y="1102"/>
      <point x="490" y="1102" type="curve" smooth="yes"/>
      <point x="277" y="1102"/>
      <point x="127" y="1009"/>
      <point x="127" y="835" type="curve" smooth="yes"/>
      <point x="127" y="694"/>
      <point x="202" y="610"/>
      <point x="376" y="556" type="curve"/>
      <point x="530" y="507" type="line" smooth="yes"/>
      <point x="687" y="458"/>
      <point x="738" y="398"/>
      <point x="738" y="268" type="curve" smooth="yes"/>
      <point x="738" y="124"/>
      <point x="663" y="53"/>
      <point x="479" y="53" type="curve" smooth="yes"/>
      <point x="380" y="53"/>
      <point x="278" y="76"/>
      <point x="196" y="123" type="curve"/>
    </contour>
  </outline>
</glyph>
<glyph name="u" format="1">
  <advance width="1169"/>
  <unicode hex="0075"/>
  <outline>
    <contour>
      <point x="585" y="1082" type="move" name="top"/>
    </contour>
    <contour>
      <point x="581" y="0" type="move" name="bot"/>
    </contour>
    <contour>
      <point x="887" y="235" type="line"/>
      <point x="831" y="132"/>
      <point x="736" y="50"/>
      <point x="549" y="50" type="curve" smooth="yes"/>
      <point x="353" y="50"/>
      <point x="273" y="177"/>
      <point x="273" y="371" type="curve" smooth="yes"/>
      <point x="273" y="1082" type="line"/>
      <point x="175" y="1082" type="line"/>
      <point x="175" y="422" type="line" smooth="yes"/>
      <point x="175" y="118"/>
      <point x="307" y="-20"/>
      <point x="548" y="-20" type="curve" smooth="yes"/>
      <point x="719" y="-20"/>
      <point x="816" y="26"/>
      <point x="889" y="148" type="curve"/>
      <point x="901" y="0" type="line"/>
      <point x="984" y="0" type="line"/>
      <point x="984" y="1082" type="line"/>
      <point x="887" y="1082" type="line"/>
    </contour>
  </outline>
</glyph>
<glyph name="v" format="1">
  <advance width="1038"/>
  <unicode hex="0076"/>
  <outline>
    <contour>
      <point x="465" y="0" type="line"/>
      <point x="573" y="0" type="line"/>
      <point x="976" y="1082" type="line"/>
      <point x="882" y="1082" type="line"/>
      <point x="762" y="745"/>
      <point x="645" y="405"/>
      <point x="517" y="77" type="curve"/>
      <point x="391" y="406"/>
      <point x="275" y="745"/>
      <point x="156" y="1082" type="curve"/>
      <point x="62" y="1082" type="line"/>
    </contour>
  </outline>
</glyph>
<glyph name="braceleft" format="1">
  <advance width="829"/>
  <unicode hex="007B"/>
  <outline>
    <contour>
      <point x="626" y="-285" type="curve"/>
      <point x="626" y="-229" type="line"/>
      <point x="474" y="-227"/>
      <point x="425" y="-169"/>
      <point x="425" y="30" type="curve" smooth="yes"/>
      <point x="425" y="316" type="line" smooth="yes"/>
      <point x="425" y="492"/>
      <point x="402" y="589"/>
      <point x="247" y="609" type="curve"/>
      <point x="402" y="629"/>
      <point x="425" y="726"/>
      <point x="425" y="902" type="curve" smooth="yes"/>
      <point x="425" y="1188" type="line" smooth="yes"/>
      <point x="425" y="1387"/>
      <point x="481" y="1445"/>
      <point x="633" y="1447" type="curve"/>
      <point x="633" y="1503" type="line"/>
      <point x="408" y="1503"/>
      <point x="341" y="1406"/>
      <point x="341" y="1190" type="curve" smooth="yes"/>
      <point x="341" y="949" type="line" smooth="yes"/>
      <point x="341" y="757"/>
      <point x="334" y="636"/>
      <point x="127" y="632" type="curve"/>
      <point x="127" y="586" type="line"/>
      <point x="334" y="582"/>
      <point x="341" y="461"/>
      <point x="341" y="269" type="curve" smooth="yes"/>
      <point x="341" y="28" type="line" smooth="yes"/>
      <point x="341" y="-188"/>
      <point x="401" y="-285"/>
    </contour>
  </outline>
</glyph>
<glyph name="braceright" format="1">
  <advance width="829"/>
  <unicode hex="007D"/>
  <outline>
    <contour>
      <point x="129" y="-285" type="line"/>
      <point x="355" y="-285"/>
      <point x="414" y="-188"/>
      <point x="414" y="28" type="curve" smooth="yes"/>
      <point x="414" y="269" type="line" smooth="yes"/>
      <point x="414" y="461"/>
      <point x="422" y="582"/>
      <point x="628" y="586" type="curve"/>
      <point x="628" y="632" type="line"/>
      <point x="422" y="636"/>
      <point x="414" y="757"/>
      <point x="414" y="949" type="curve" smooth="yes"/>
      <point x="414" y="1190" type="line" smooth="yes"/>
      <point x="414" y="1406"/>
      <point x="347" y="1503"/>
      <point x="122" y="1503" type="curve"/>
      <point x="122" y="1447" type="line"/>
      <point x="274" y="1445"/>
      <point x="330" y="1387"/>
      <point x="330" y="1188" type="curve" smooth="yes"/>
      <point x="330" y="902" type="line" smooth="yes"/>
      <point x="330" y="726"/>
      <point x="354" y="629"/>
      <point x="509" y="609" type="curve"/>
      <point x="354" y="589"/>
      <point x="330" y="492"/>
      <point x="330" y="316" type="curve" smooth="yes"/>
      <point x="330" y="30" type="line" smooth="yes"/>
      <point x="330" y="-169"/>
      <point x="281" y="-227"/>
      <point x="129" y="-229" type="curve"/>
    </contour>
  </outline>
</glyph>
<glyph name="asciitilde" format="1">
  <advance width="1216"/>
  <unicode hex="007E"/>
  <outline>
    <contour>
      <point x="104" y="516" type="line"/>
      <point x="155" y="614"/>
      <point x="249" y="691"/>
      <point x="342" y="691" type="curve" smooth="yes"/>
      <point x="414" y="691"/>
      <point x="503" y="649"/>
      <point x="631" y="593" type="curve" smooth="yes"/>
      <point x="707" y="559"/>
      <point x="782" y="532"/>
      <point x="836" y="532" type="curve" smooth="yes"/>
      <point x="948" y="532"/>
      <point x="997" y="597"/>
      <point x="1044" y="736" type="curve"/>
      <point x="1020" y="785" type="line"/>
      <point x="1009" y="704"/>
      <point x="918" y="608"/>
      <point x="829" y="608" type="curve" smooth="yes"/>
      <point x="764" y="608"/>
      <point x="673" y="658"/>
      <point x="570" y="701" type="curve" smooth="yes"/>
      <point x="458" y="751"/>
      <point x="419" y="770"/>
      <point x="341" y="770" type="curve" smooth="yes"/>
      <point x="225" y="770"/>
      <point x="136" y="688"/>
      <point x="93" y="575" type="curve"/>
    </contour>
  </outline>
</glyph>
<glyph name="cent" format="1">
  <advance width="1019"/>
  <unicode hex="00A2"/>
  <outline>
    <component base="c"/>
    <contour>
      <point x="546" y="1372" type="line"/>
      <point x="545" y="1063" type="line"/>
      <point x="627" y="1063" type="line"/>
      <point x="627" y="1372" type="line"/>
    </contour>
    <contour>
      <point x="545" y="16" type="line"/>
      <point x="545" y="-288" type="line"/>
      <point x="626" y="-288" type="line"/>
      <point x="628" y="16" type="line"/>
    </contour>
  </outline>
</glyph>
<glyph name="sterling" format="1">
  <advance width="1231"/>
  <unicode hex="00A3"/>
  <outline>
    <contour>
      <point x="1020" y="1299" type="line"/>
      <point x="1057" y="1355" type="line"/>
      <point x="980" y="1421"/>
      <point x="876" y="1475"/>
      <point x="732" y="1475" type="curve" smooth="yes"/>
      <point x="351" y="1475"/>
      <point x="335" y="1158"/>
      <point x="335" y="865" type="curve" smooth="yes"/>
      <point x="335" y="753" type="line"/>
      <point x="147" y="753" type="line"/>
      <point x="147" y="694" type="line"/>
      <point x="335" y="694" type="line"/>
      <point x="335" y="63" type="line"/>
      <point x="142" y="51" type="line"/>
      <point x="154" y="0" type="line"/>
      <point x="1050" y="0" type="line"/>
      <point x="1056" y="65" type="line"/>
      <point x="413" y="65" type="line"/>
      <point x="413" y="694" type="line"/>
      <point x="844" y="694" type="line"/>
      <point x="844" y="753" type="line"/>
      <point x="413" y="753" type="line"/>
      <point x="413" y="937" type="line" smooth="yes"/>
      <point x="413" y="1215"/>
      <point x="481" y="1407"/>
      <point x="725" y="1407" type="curve" smooth="yes"/>
      <point x="833" y="1407"/>
      <point x="926" y="1371"/>
      <point x="1013" y="1299" type="curve"/>
    </contour>
  </outline>
</glyph>
<glyph name="brokenbar" format="1">
  <advance width="105"/>
  <unicode hex="00A6"/>
  <outline>
    <contour>
      <point x="10" y="1454" type="line"/>
      <point x="10" y="787" type="line"/>
      <point x="77" y="787" type="line"/>
      <point x="77" y="1454" type="line"/>
    </contour>
    <contour>
      <point x="10" y="541" type="line"/>
      <point x="10" y="-129" type="line"/>
      <point x="77" y="-129" type="line"/>
      <point x="77" y="541" type="line"/>
    </contour>
  </outline>
</glyph>
<glyph name="section" format="1">
  <advance width="1042"/>
  <unicode hex="00A7"/>
  <outline>
    <contour>
      <point x="492" y="-86" type="curve" smooth="yes"/>
      <point x="694" y="-86"/>
      <point x="875" y="1"/>
      <point x="875" y="203" type="curve" smooth="yes"/>
      <point x="875" y="312"/>
      <point x="811" y="406"/>
      <point x="703" y="457" type="curve"/>
      <point x="810" y="504"/>
      <point x="882" y="561"/>
      <point x="882" y="676" type="curve" smooth="yes"/>
      <point x="882" y="802"/>
      <point x="784" y="849"/>
      <point x="571" y="933" type="curve" smooth="yes"/>
      <point x="343" y="1022"/>
      <point x="257" y="1038"/>
      <point x="257" y="1205" type="curve" smooth="yes"/>
      <point x="257" y="1352"/>
      <point x="397" y="1421"/>
      <point x="561" y="1421" type="curve" smooth="yes"/>
      <point x="651" y="1421"/>
      <point x="745" y="1401"/>
      <point x="822" y="1363" type="curve"/>
      <point x="843" y="1417" type="line"/>
      <point x="755" y="1454"/>
      <point x="653" y="1475"/>
      <point x="555" y="1475" type="curve" smooth="yes"/>
      <point x="356" y="1475"/>
      <point x="183" y="1391"/>
      <point x="183" y="1204" type="curve" smooth="yes"/>
      <point x="183" y="1089"/>
      <point x="236" y="1016"/>
      <point x="350" y="958" type="curve"/>
      <point x="258" y="909"/>
      <point x="186" y="845"/>
      <point x="186" y="730" type="curve" smooth="yes"/>
      <point x="186" y="570"/>
      <point x="284" y="548"/>
      <point x="499" y="471" type="curve" smooth="yes"/>
      <point x="756" y="380"/>
      <point x="801" y="313"/>
      <point x="801" y="203" type="curve" smooth="yes"/>
      <point x="801" y="35"/>
      <point x="657" y="-29"/>
      <point x="497" y="-29" type="curve" smooth="yes"/>
      <point x="392" y="-29"/>
      <point x="284" y="-2"/>
      <point x="201" y="39" type="curve"/>
      <point x="180" y="-20" type="line"/>
      <point x="274" y="-63"/>
      <point x="386" y="-86"/>
    </contour>
    <contour>
      <point x="652" y="479" type="curve" smooth="yes"/>
      <point x="649" y="480"/>
      <point x="535" y="523"/>
      <point x="524" y="524" type="curve" smooth="yes"/>
      <point x="306" y="605"/>
      <point x="256" y="620"/>
      <point x="256" y="734" type="curve" smooth="yes"/>
      <point x="256" y="857"/>
      <point x="348" y="909"/>
      <point x="412" y="933" type="curve" smooth="yes"/>
      <point x="413" y="933"/>
      <point x="535" y="883"/>
      <point x="545" y="882" type="curve" smooth="yes"/>
      <point x="683" y="828"/>
      <point x="815" y="779"/>
      <point x="815" y="678" type="curve" smooth="yes"/>
      <point x="815" y="539"/>
      <point x="713" y="513"/>
    </contour>
  </outline>
</glyph>
<glyph name="macron" format="1">
  <advance width="1232"/>
  <unicode hex="00AF"/>
  <outline>
    <contour>
      <point x="355" y="1381" type="line"/>
      <point x="828" y="1381" type="line"/>
      <point x="828" y="1435" type="line"/>
      <point x="355" y="1435" type="line"/>
    </contour>
    <contour>
      <point x="593" y="1408" type="move" name="_mid"/>
    </contour>
    <contour>
      <point x="616" y="1053" type="move" name="_top"/>
    </contour>
  </outline>
</glyph>
<glyph name="degree" format="1">
  <advance width="854"/>
  <unicode hex="00B0"/>
  <outline>
    <contour>
      <point x="426" y="989" type="curve" smooth="yes"/>
      <point x="298" y="989"/>
      <point x="203" y="1083"/>
      <point x="203" y="1211" type="curve" smooth="yes"/>
      <point x="203" y="1340"/>
      <point x="301" y="1435"/>
      <point x="425" y="1435" type="curve" smooth="yes"/>
      <point x="555" y="1435"/>
      <point x="652" y="1340"/>
      <point x="652" y="1211" type="curve" smooth="yes"/>
      <point x="652" y="1086"/>
      <point x="555" y="989"/>
    </contour>
    <contour>
      <point x="424" y="926" type="curve" smooth="yes"/>
      <point x="567" y="926"/>
      <point x="724" y="1037"/>
      <point x="724" y="1211" type="curve" smooth="yes"/>
      <point x="724" y="1390"/>
      <point x="565" y="1497"/>
      <point x="424" y="1497" type="curve" smooth="yes"/>
      <point x="291" y="1497"/>
      <point x="130" y="1390"/>
      <point x="130" y="1211" type="curve" smooth="yes"/>
      <point x="130" y="1027"/>
      <point x="293" y="926"/>
    </contour>
  </outline>
</glyph>
<glyph name="uni00B2" format="1">
  <advance width="734"/>
  <unicode hex="00B2"/>
  <outline>
    <contour>
      <point x="147" y="695" type="line"/>
      <point x="625" y="695" type="line"/>
      <point x="626" y="754" type="line"/>
      <point x="246" y="754" type="line"/>
      <point x="336" y="848"/>
      <point x="403" y="917"/>
      <point x="461" y="976" type="curve" smooth="yes"/>
      <point x="575" y="1093"/>
      <point x="627" y="1162"/>
      <point x="627" y="1280" type="curve" smooth="yes"/>
      <point x="627" y="1439"/>
      <point x="512" y="1521"/>
      <point x="367" y="1521" type="curve" smooth="yes"/>
      <point x="234" y="1521"/>
      <point x="138" y="1471"/>
      <point x="68" y="1385" type="curve"/>
      <point x="115" y="1340" type="line"/>
      <point x="180" y="1415"/>
      <point x="253" y="1459"/>
      <point x="373" y="1459" type="curve" smooth="yes"/>
      <point x="488" y="1459"/>
      <point x="553" y="1385"/>
      <point x="553" y="1279" type="curve" smooth="yes"/>
      <point x="553" y="1200"/>
      <point x="518" y="1136"/>
      <point x="409" y="1016" type="curve" smooth="yes"/>
      <point x="343" y="949"/>
      <point x="262" y="867"/>
      <point x="147" y="756" type="curve"/>
    </contour>
  </outline>
</glyph>
<glyph name="acute" format="1">
  <advance width="679"/>
  <unicode hex="00B4"/>
  <outline>
    <contour>
      <point x="233" y="1082" type="move" name="_top"/>
    </contour>
    <contour>
      <point x="204" y="1260" type="line"/>
      <point x="258" y="1260" type="line"/>
      <point x="523" y="1611" type="line"/>
      <point x="418" y="1611" type="line"/>
    </contour>
  </outline>
</glyph>
<glyph name="mu" format="1">
  <advance width="1168"/>
  <unicode hex="00B5"/>
  <outline>
    <contour>
      <point x="887" y="235" type="line"/>
      <point x="831" y="132"/>
      <point x="736" y="50"/>
      <point x="549" y="50" type="curve" smooth="yes"/>
      <point x="353" y="50"/>
      <point x="273" y="177"/>
      <point x="273" y="371" type="curve" smooth="yes"/>
      <point x="273" y="1082" type="line"/>
      <point x="175" y="1082" type="line"/>
      <point x="175" y="-357" type="line"/>
      <point x="273" y="-357" type="line"/>
      <point x="273" y="85" type="line"/>
      <point x="336" y="14"/>
      <point x="429" y="-20"/>
      <point x="548" y="-20" type="curve" smooth="yes"/>
      <point x="719" y="-20"/>
      <point x="816" y="26"/>
      <point x="889" y="148" type="curve"/>
      <point x="901" y="0" type="line"/>
      <point x="984" y="0" type="line"/>
      <point x="984" y="1082" type="line"/>
      <point x="887" y="1082" type="line"/>
    </contour>
  </outline>
</glyph>
<glyph name="paragraph" format="1">
  <advance width="1119"/>
  <unicode hex="00B6"/>
  <outline>
    <contour>
      <point x="642" y="1393" type="line"/>
      <point x="800" y="1393" type="line"/>
      <point x="800" y="-194" type="line"/>
      <point x="872" y="-194" type="line"/>
      <point x="872" y="1456" type="line"/>
      <point x="516" y="1456" type="line" smooth="yes"/>
      <point x="166" y="1456"/>
      <point x="151" y="1244"/>
      <point x="151" y="1155" type="curve" smooth="yes"/>
      <point x="151" y="993"/>
      <point x="230" y="831"/>
      <point x="570" y="831" type="curve"/>
      <point x="570" y="-194" type="line"/>
      <point x="642" y="-194" type="line"/>
    </contour>
  </outline>
</glyph>
<glyph name="periodcentered" format="1">
  <advance width="417"/>
  <unicode hex="00B7"/>
  <outline>
    <contour>
      <point x="209" y="546" type="curve" smooth="yes"/>
      <point x="273" y="546"/>
      <point x="287" y="590"/>
      <point x="287" y="625" type="curve" smooth="yes"/>
      <point x="287" y="659"/>
      <point x="273" y="703"/>
      <point x="209" y="703" type="curve" smooth="yes"/>
      <point x="142" y="703"/>
      <point x="130" y="659"/>
      <point x="130" y="625" type="curve" smooth="yes"/>
      <point x="130" y="591"/>
      <point x="145" y="546"/>
    </contour>
  </outline>
</glyph>
<glyph name="uni00B9" format="1">
  <advance width="907"/>
  <unicode hex="00B9"/>
  <outline>
    <contour>
      <point x="284" y="695" type="line"/>
      <point x="761" y="695" type="line"/>
      <point x="761" y="754" type="line"/>
      <point x="571" y="754" type="line"/>
      <point x="571" y="1511" type="line"/>
      <point x="498" y="1511" type="line"/>
      <point x="452" y="1465"/>
      <point x="345" y="1427"/>
      <point x="287" y="1414" type="curve"/>
      <point x="287" y="1352" type="line"/>
      <point x="351" y="1367"/>
      <point x="449" y="1399"/>
      <point x="487" y="1426" type="curve"/>
      <point x="487" y="754" type="line"/>
      <point x="284" y="754" type="line"/>
    </contour>
  </outline>
</glyph>
<glyph name="onequarter" format="1">
  <advance width="1637"/>
  <unicode hex="00BC"/>
  <outline>
    <contour>
      <point x="115" y="682" type="line"/>
      <point x="505" y="682" type="line"/>
      <point x="505" y="739" type="line"/>
      <point x="359" y="739" type="line"/>
      <point x="359" y="1511" type="line"/>
      <point x="293" y="1511" type="line"/>
      <point x="247" y="1464"/>
      <point x="166" y="1434"/>
      <point x="108" y="1413" type="curve"/>
      <point x="108" y="1352" type="line"/>
      <point x="164" y="1372"/>
      <point x="243" y="1404"/>
      <point x="280" y="1430" type="curve"/>
      <point x="280" y="739" type="line"/>
      <point x="115" y="739" type="line"/>
    </contour>
    <contour>
      <point x="1372" y="-1" type="line"/>
      <point x="1448" y="-1" type="line"/>
      <point x="1448" y="218" type="line"/>
      <point x="1575" y="218" type="line"/>
      <point x="1568" y="275" type="line"/>
      <point x="1450" y="275" type="line"/>
      <point x="1450" y="828" type="line"/>
      <point x="1362" y="828" type="line"/>
      <point x="975" y="265" type="line"/>
      <point x="975" y="218" type="line"/>
      <point x="1372" y="218" type="line"/>
    </contour>
    <contour>
      <point x="391" y="0" type="line"/>
      <point x="472" y="0" type="line"/>
      <point x="1345" y="1525" type="line"/>
      <point x="1264" y="1525" type="line"/>
    </contour>
    <contour>
      <point x="1062" y="275" type="line"/>
      <point x="1373" y="738" type="line"/>
      <point x="1373" y="275" type="line"/>
    </contour>
  </outline>
</glyph>
<glyph name="threequarters" format="1">
  <advance width="1714"/>
  <unicode hex="00BE"/>
  <outline>
    <contour>
      <point x="352" y="663" type="curve" smooth="yes"/>
      <point x="489" y="663"/>
      <point x="616" y="731"/>
      <point x="616" y="889" type="curve" smooth="yes"/>
      <point x="616" y="999"/>
      <point x="546" y="1079"/>
      <point x="443" y="1102" type="curve"/>
      <point x="538" y="1119"/>
      <point x="602" y="1198"/>
      <point x="602" y="1297" type="curve" smooth="yes"/>
      <point x="602" y="1446"/>
      <point x="492" y="1512"/>
      <point x="366" y="1512" type="curve" smooth="yes"/>
      <point x="283" y="1512"/>
      <point x="193" y="1483"/>
      <point x="123" y="1429" type="curve"/>
      <point x="162" y="1374" type="line"/>
      <point x="222" y="1419"/>
      <point x="297" y="1445"/>
      <point x="363" y="1445" type="curve" smooth="yes"/>
      <point x="452" y="1445"/>
      <point x="524" y="1399"/>
      <point x="524" y="1295" type="curve" smooth="yes"/>
      <point x="524" y="1196"/>
      <point x="460" y="1135"/>
      <point x="329" y="1135" type="curve" smooth="yes"/>
      <point x="251" y="1135" type="line"/>
      <point x="251" y="1068" type="line"/>
      <point x="329" y="1068" type="line" smooth="yes"/>
      <point x="465" y="1068"/>
      <point x="532" y="1000"/>
      <point x="532" y="889" type="curve" smooth="yes"/>
      <point x="532" y="774"/>
      <point x="447" y="729"/>
      <point x="350" y="729" type="curve" smooth="yes"/>
      <point x="283" y="729"/>
      <point x="210" y="750"/>
      <point x="156" y="786" type="curve"/>
      <point x="127" y="729" type="line"/>
      <point x="188" y="686"/>
      <point x="271" y="663"/>
    </contour>
    <contour>
      <point x="1398" y="-1" type="line"/>
      <point x="1474" y="-1" type="line"/>
      <point x="1474" y="218" type="line"/>
      <point x="1601" y="218" type="line"/>
      <point x="1594" y="275" type="line"/>
      <point x="1476" y="275" type="line"/>
      <point x="1476" y="828" type="line"/>
      <point x="1388" y="828" type="line"/>
      <point x="1001" y="265" type="line"/>
      <point x="1001" y="218" type="line"/>
      <point x="1398" y="218" type="line"/>
    </contour>
    <contour>
      <point x="418" y="0" type="line"/>
      <point x="498" y="0" type="line"/>
      <point x="1372" y="1525" type="line"/>
      <point x="1291" y="1525" type="line"/>
    </contour>
    <contour>
      <point x="1088" y="275" type="line"/>
      <point x="1399" y="738" type="line"/>
      <point x="1399" y="275" type="line"/>
    </contour>
  </outline>
</glyph>
<glyph name="multiply" format="1">
  <advance width="664"/>
  <unicode hex="00D7"/>
  <outline>
    <contour>
      <point x="37" y="858" type="line"/>
      <point x="295" y="581" type="line"/>
      <point x="22" y="288" type="line"/>
      <point x="68" y="249" type="line"/>
      <point x="337" y="536" type="line"/>
      <point x="601" y="250" type="line"/>
      <point x="642" y="291" type="line"/>
      <point x="642" y="291"/>
      <point x="390" y="570"/>
      <point x="379" y="580" type="curve"/>
      <point x="637" y="852" type="line"/>
      <point x="586" y="897" type="line"/>
      <point x="337" y="627" type="line"/>
      <point x="85" y="904" type="line"/>
    </contour>
  </outline>
</glyph>
<glyph name="Thorn" format="1">
  <advance width="1196"/>
  <unicode hex="00DE"/>
  <outline>
    <contour>
      <point x="313" y="1080" type="line"/>
      <point x="667" y="1080" type="line" smooth="yes"/>
      <point x="854" y="1080"/>
      <point x="995" y="1019"/>
      <point x="995" y="812" type="curve" smooth="yes"/>
      <point x="995" y="567"/>
      <point x="890" y="498"/>
      <point x="677" y="498" type="curve" smooth="yes"/>
      <point x="313" y="498" type="line"/>
    </contour>
    <contour>
      <point x="221" y="0" type="line"/>
      <point x="313" y="0" type="line"/>
      <point x="313" y="430" type="line"/>
      <point x="664" y="430" type="line" smooth="yes"/>
      <point x="956" y="430"/>
      <point x="1088" y="555"/>
      <point x="1088" y="809" type="curve" smooth="yes"/>
      <point x="1088" y="1046"/>
      <point x="913" y="1151"/>
      <point x="670" y="1151" type="curve" smooth="yes"/>
      <point x="313" y="1151" type="line"/>
      <point x="313" y="1456" type="line"/>
      <point x="221" y="1456" type="line"/>
    </contour>
  </outline>
</glyph>
<glyph name="germandbls" format="1">
  <advance width="1191"/>
  <unicode hex="00DF"/>
  <outline>
    <contour>
      <point x="798" y="-18" type="curve" smooth="yes"/>
      <point x="987" y="-18"/>
      <point x="1094" y="102"/>
      <point x="1094" y="273" type="curve" smooth="yes"/>
      <point x="1094" y="556"/>
      <point x="695" y="618"/>
      <point x="695" y="747" type="curve" smooth="yes"/>
      <point x="695" y="853"/>
      <point x="928" y="1010"/>
      <point x="928" y="1198" type="curve" smooth="yes"/>
      <point x="928" y="1355"/>
      <point x="824" y="1496"/>
      <point x="601" y="1496" type="curve" smooth="yes"/>
      <point x="300" y="1496"/>
      <point x="201" y="1318"/>
      <point x="201" y="1027" type="curve" smooth="yes"/>
      <point x="201" y="0" type="line"/>
      <point x="301" y="0" type="line"/>
      <point x="301" y="1038" type="line" smooth="yes"/>
      <point x="301" y="1330"/>
      <point x="393" y="1422"/>
      <point x="599" y="1422" type="curve" smooth="yes"/>
      <point x="757" y="1422"/>
      <point x="823" y="1328"/>
      <point x="823" y="1204" type="curve" smooth="yes"/>
      <point x="823" y="973"/>
      <point x="612" y="906"/>
      <point x="612" y="742" type="curve" smooth="yes"/>
      <point x="612" y="542"/>
      <point x="1003" y="493"/>
      <point x="1003" y="261" type="curve" smooth="yes"/>
      <point x="1003" y="181"/>
      <point x="961" y="62"/>
      <point x="802" y="62" type="curve" smooth="yes"/>
      <point x="669" y="62"/>
      <point x="560" y="107"/>
      <point x="495" y="142" type="curve"/>
      <point x="461" y="63" type="line"/>
      <point x="513" y="29"/>
      <point x="651" y="-18"/>
    </contour>
  </outline>
</glyph>
<glyph name="ae" format="1">
  <advance width="1806"/>
  <unicode hex="00E6"/>
  <outline>
    <contour>
      <point x="926" y="1082" type="move" name="top"/>
    </contour>
    <contour>
      <point x="1306" y="-19" type="curve" smooth="yes"/>
      <point x="1455" y="-19"/>
      <point x="1559" y="18"/>
      <point x="1662" y="71" type="curve"/>
      <point x="1631" y="134" type="line"/>
      <point x="1497" y="69"/>
      <point x="1425" y="56"/>
      <point x="1322" y="56" type="curve" smooth="yes"/>
      <point x="1320" y="56" type="line" smooth="yes"/>
      <point x="1102" y="56"/>
      <point x="935" y="197"/>
      <point x="925" y="538" type="curve"/>
      <point x="946" y="538" type="line" smooth="yes"/>
      <point x="1488" y="538"/>
      <point x="1663" y="577"/>
      <point x="1663" y="816" type="curve" smooth="yes"/>
      <point x="1663" y="962"/>
      <point x="1533" y="1101"/>
      <point x="1296" y="1101" type="curve" smooth="yes"/>
      <point x="1126" y="1101"/>
      <point x="938" y="1000"/>
      <point x="906" y="799" type="curve"/>
      <point x="899" y="1021"/>
      <point x="743" y="1102"/>
      <point x="540" y="1102" type="curve" smooth="yes"/>
      <point x="423" y="1102"/>
      <point x="276" y="1064"/>
      <point x="189" y="1017" type="curve"/>
      <point x="225" y="946" type="line"/>
      <point x="329" y="1004"/>
      <point x="464" y="1030"/>
      <point x="571" y="1030" type="curve" smooth="yes"/>
      <point x="574" y="1030" type="line" smooth="yes"/>
      <point x="763" y="1030"/>
      <point x="834" y="926"/>
      <point x="834" y="754" type="curve" smooth="yes"/>
      <point x="834" y="606" type="line"/>
      <point x="828" y="606"/>
      <point x="626" y="607"/>
      <point x="622" y="607" type="curve" smooth="yes"/>
      <point x="264" y="607"/>
      <point x="129" y="497"/>
      <point x="129" y="293" type="curve" smooth="yes"/>
      <point x="129" y="61"/>
      <point x="283" y="-13"/>
      <point x="451" y="-13" type="curve" smooth="yes"/>
      <point x="621" y="-13"/>
      <point x="831" y="74"/>
      <point x="918" y="190" type="curve"/>
      <point x="997" y="56"/>
      <point x="1135" y="-19"/>
    </contour>
    <contour>
      <point x="466" y="71" type="curve" smooth="yes"/>
      <point x="333" y="71"/>
      <point x="229" y="140"/>
      <point x="229" y="311" type="curve" smooth="yes"/>
      <point x="229" y="466"/>
      <point x="311" y="541"/>
      <point x="652" y="541" type="curve" smooth="yes"/>
      <point x="833" y="541" type="line"/>
      <point x="833" y="458"/>
      <point x="844" y="347"/>
      <point x="878" y="264" type="curve"/>
      <point x="792" y="150"/>
      <point x="612" y="71"/>
    </contour>
    <contour>
      <point x="929" y="600" type="line"/>
      <point x="951" y="823"/>
      <point x="1070" y="1024"/>
      <point x="1297" y="1024" type="curve" smooth="yes"/>
      <point x="1489" y="1024"/>
      <point x="1581" y="908"/>
      <point x="1581" y="803" type="curve" smooth="yes"/>
      <point x="1581" y="639"/>
      <point x="1391" y="600"/>
      <point x="946" y="600" type="curve" smooth="yes"/>
    </contour>
  </outline>
</glyph>
<glyph name="eth" format="1">
  <advance width="1355"/>
  <unicode hex="00F0"/>
  <outline>
    <contour>
      <point x="312" y="1628" type="line"/>
      <point x="542" y="1423" type="line"/>
      <point x="281" y="1323" type="line"/>
      <point x="317" y="1265" type="line"/>
      <point x="586" y="1367" type="line"/>
      <point x="867" y="1094"/>
      <point x="977" y="913"/>
      <point x="1030" y="773" type="curve"/>
      <point x="981" y="832"/>
      <point x="880" y="975"/>
      <point x="661" y="975" type="curve" smooth="yes"/>
      <point x="382" y="975"/>
      <point x="174" y="776"/>
      <point x="174" y="484" type="curve" smooth="yes"/>
      <point x="174" y="234"/>
      <point x="319" y="-31"/>
      <point x="657" y="-31" type="curve" smooth="yes"/>
      <point x="1004" y="-31"/>
      <point x="1143" y="220"/>
      <point x="1143" y="495" type="curve" smooth="yes"/>
      <point x="1143" y="626"/>
      <point x="1114" y="774"/>
      <point x="1068" y="870" type="curve" smooth="yes"/>
      <point x="1009" y="998"/>
      <point x="912" y="1138"/>
      <point x="662" y="1398" type="curve"/>
      <point x="954" y="1503" type="line"/>
      <point x="916" y="1560" type="line"/>
      <point x="608" y="1444" type="line"/>
      <point x="420" y="1628" type="line"/>
    </contour>
    <contour>
      <point x="1052" y="500" type="curve" smooth="yes"/>
      <point x="1052" y="221"/>
      <point x="924" y="35"/>
      <point x="662" y="35" type="curve" smooth="yes"/>
      <point x="394" y="35"/>
      <point x="276" y="269"/>
      <point x="276" y="481" type="curve" smooth="yes"/>
      <point x="276" y="713"/>
      <point x="418" y="900"/>
      <point x="656" y="900" type="curve" smooth="yes"/>
      <point x="914" y="900"/>
      <point x="1052" y="691"/>
    </contour>
  </outline>
</glyph>
<glyph name="oslash" format="1">
  <advance width="1199"/>
  <unicode hex="00F8"/>
  <outline>
    <component base="o"/>
    <contour>
      <point x="232" y="-121" type="line"/>
      <point x="292" y="-152" type="line"/>
      <point x="1022" y="1191" type="line"/>
      <point x="958" y="1220" type="line"/>
    </contour>
  </outline>
</glyph>
<glyph name="kgreenlandic" format="1">
  <advance width="1057"/>
  <unicode hex="0138"/>
  <outline>
    <contour>
      <point x="186" y="0" type="line"/>
      <point x="284" y="0" type="line"/>
      <point x="284" y="406" type="line"/>
      <point x="422" y="529" type="line"/>
      <point x="905" y="0" type="line"/>
      <point x="1007" y="0" type="line"/>
      <point x="1007" y="13" type="line"/>
      <point x="479" y="580" type="line"/>
      <point x="1000" y="1068" type="line"/>
      <point x="1000" y="1082" type="line"/>
      <point x="905" y="1082" type="line"/>
      <point x="278" y="498" type="line"/>
      <point x="284" y="700" type="line"/>
      <point x="284" y="1082" type="line"/>
      <point x="186" y="1082" type="line"/>
    </contour>
  </outline>
</glyph>
<glyph name="eng" format="1">
  <advance width="1169"/>
  <unicode hex="014B"/>
  <outline>
    <component base="n"/>
    <contour>
      <point x="892" y="286" type="line"/>
      <point x="892" y="2" type="line" smooth="yes"/>
      <point x="892" y="-248"/>
      <point x="850" y="-327"/>
      <point x="516" y="-327" type="curve"/>
      <point x="528" y="-394" type="line"/>
      <point x="944" y="-394"/>
      <point x="990" y="-254"/>
      <point x="990" y="-20" type="curve" smooth="yes"/>
      <point x="990" y="286" type="line"/>
    </contour>
  </outline>
</glyph>
<glyph name="oe" format="1">
  <advance width="1988"/>
  <unicode hex="0153"/>
  <outline>
    <contour>
      <point x="1802" y="143" type="line"/>
      <point x="1672" y="79"/>
      <point x="1603" y="55"/>
      <point x="1476" y="55" type="curve" smooth="yes"/>
      <point x="1276" y="55"/>
      <point x="1084" y="182"/>
      <point x="1084" y="527" type="curve"/>
      <point x="1859" y="527" type="line"/>
      <point x="1859" y="527"/>
      <point x="1864" y="560"/>
      <point x="1864" y="592" type="curve" smooth="yes"/>
      <point x="1864" y="887"/>
      <point x="1722" y="1071"/>
      <point x="1472" y="1071" type="curve" smooth="yes"/>
      <point x="1470" y="1071" type="line" smooth="yes"/>
      <point x="1290" y="1071"/>
      <point x="1101" y="950"/>
      <point x="1041" y="717" type="curve"/>
      <point x="994" y="940"/>
      <point x="827" y="1071"/>
      <point x="604" y="1071" type="curve" smooth="yes"/>
      <point x="301" y="1071"/>
      <point x="124" y="832"/>
      <point x="124" y="522" type="curve" smooth="yes"/>
      <point x="124" y="217"/>
      <point x="300" y="-18"/>
      <point x="604" y="-18" type="curve" smooth="yes"/>
      <point x="803" y="-18"/>
      <point x="971" y="103"/>
      <point x="1034" y="319" type="curve"/>
      <point x="1095" y="90"/>
      <point x="1269" y="-18"/>
      <point x="1474" y="-18" type="curve" smooth="yes"/>
      <point x="1653" y="-18"/>
      <point x="1740" y="31"/>
      <point x="1841" y="85" type="curve"/>
      <point x="1814" y="143" type="line"/>
    </contour>
    <contour>
      <point x="604" y="51" type="curve" smooth="yes"/>
      <point x="343" y="51"/>
      <point x="220" y="272"/>
      <point x="220" y="520" type="curve" smooth="yes"/>
      <point x="220" y="779"/>
      <point x="342" y="1001"/>
      <point x="604" y="1001" type="curve" smooth="yes"/>
      <point x="873" y="1001"/>
      <point x="987" y="778"/>
      <point x="987" y="519" type="curve" smooth="yes"/>
      <point x="987" y="273"/>
      <point x="876" y="51"/>
    </contour>
    <contour>
      <point x="1088" y="589" type="line"/>
      <point x="1111" y="824"/>
      <point x="1251" y="999"/>
      <point x="1481" y="999" type="curve" smooth="yes"/>
      <point x="1692" y="998"/>
      <point x="1780" y="854"/>
      <point x="1787" y="589" type="curve"/>
    </contour>
  </outline>
</glyph>
<glyph name="uni0237" format="1">
  <advance width="495"/>
  <unicode hex="0237"/>
  <outline>
    <contour>
      <point x="273" y="1081" type="move" name="top"/>
    </contour>
    <contour>
      <point x="222" y="1082" type="line"/>
      <point x="222" y="57" type="line" smooth="yes"/>
      <point x="222" y="-150"/>
      <point x="220" y="-221"/>
      <point x="66" y="-221" type="curve"/>
      <point x="29" y="-222" type="line"/>
      <point x="25" y="-310" type="line"/>
      <point x="80" y="-310" type="line"/>
      <point x="225" y="-309"/>
      <point x="319" y="-245"/>
      <point x="319" y="-20" type="curve" smooth="yes"/>
      <point x="319" y="1082" type="line"/>
    </contour>
  </outline>
</glyph>
<glyph name="uni0259" format="1">
  <advance width="1122"/>
  <unicode hex="0259"/>
  <outline>
    <contour>
      <point x="524" y="1102" type="curve" smooth="yes"/>
      <point x="372" y="1102"/>
      <point x="260" y="1063"/>
      <point x="160" y="1009" type="curve"/>
      <point x="193" y="944" type="line"/>
      <point x="204" y="944" type="line"/>
      <point x="304" y="999"/>
      <point x="404" y="1028"/>
      <point x="512" y="1028" type="curve" smooth="yes"/>
      <point x="729" y="1028"/>
      <point x="909" y="877"/>
      <point x="918" y="536" type="curve"/>
      <point x="142" y="536" type="line"/>
      <point x="142" y="536"/>
      <point x="137" y="503"/>
      <point x="137" y="470" type="curve" smooth="yes"/>
      <point x="137" y="162.68"/>
      <point x="278.396" y="-20"/>
      <point x="530" y="-20" type="curve" smooth="yes"/>
      <point x="782" y="-20"/>
      <point x="1010" y="180"/>
      <point x="1010" y="545" type="curve" smooth="yes"/>
      <point x="1010" y="879"/>
      <point x="809" y="1102"/>
    </contour>
    <contour>
      <point x="913" y="474" type="line"/>
      <point x="890" y="228"/>
      <point x="749" y="52"/>
      <point x="520" y="52" type="curve" smooth="yes"/>
      <point x="309" y="52"/>
      <point x="220" y="198"/>
      <point x="213" y="474" type="curve"/>
    </contour>
  </outline>
</glyph>
<glyph name="apostrophemod" format="1">
  <advance width="640"/>
  <unicode hex="02BC"/>
  <outline>
    <contour>
      <point x="172" y="1209" type="curve"/>
      <point x="225" y="1209" type="line"/>
      <point x="225" y="1209"/>
      <point x="348" y="1614"/>
      <point x="349" y="1616" type="curve"/>
      <point x="248" y="1616" type="line"/>
      <point x="248" y="1615"/>
      <point x="172" y="1209"/>
    </contour>
  </outline>
</glyph>
<glyph name="uni02BC" format="1">
  <advance width="640"/>
  <unicode hex="02BC"/>
  <outline>
    <contour>
      <point x="248" y="1616" type="line"/>
      <point x="172" y="1209" type="line"/>
      <point x="225" y="1209" type="line"/>
      <point x="225" y="1209"/>
      <point x="348" y="1614"/>
      <point x="349" y="1616" type="curve"/>
    </contour>
  </outline>
</glyph>
<glyph name="uni02C9" format="1">
  <advance width="600"/>
  <unicode hex="02C9"/>
  <outline>
    <contour>
      <point x="320" y="1082" type="move" name="_top"/>
    </contour>
    <contour>
      <point x="40" y="1286" type="line"/>
      <point x="562" y="1286" type="line"/>
      <point x="562" y="1373" type="line"/>
      <point x="40" y="1373" type="line"/>
    </contour>
  </outline>
</glyph>
<glyph name="breve" format="1">
  <advance width="821"/>
  <unicode hex="02D8"/>
  <outline>
    <contour>
      <point x="403" y="1259" type="curve" smooth="yes"/>
      <point x="506" y="1259"/>
      <point x="607" y="1316"/>
      <point x="607" y="1476" type="curve"/>
      <point x="555" y="1476" type="line"/>
      <point x="555" y="1356"/>
      <point x="466" y="1310"/>
      <point x="403" y="1310" type="curve" smooth="yes"/>
      <point x="342" y="1310"/>
      <point x="261" y="1356"/>
      <point x="261" y="1476" type="curve"/>
      <point x="206" y="1476" type="line"/>
      <point x="206" y="1315"/>
      <point x="303" y="1259"/>
    </contour>
    <contour>
      <point x="410" y="1053" type="move" name="_top"/>
    </contour>
  </outline>
</glyph>
<glyph name="ring" format="1">
  <advance width="624"/>
  <unicode hex="02DA"/>
  <outline>
    <contour>
      <point x="311" y="1082" type="move" name="_top"/>
    </contour>
    <contour>
      <point x="311" y="1258" type="curve" smooth="yes"/>
      <point x="257" y="1258"/>
      <point x="211" y="1303"/>
      <point x="211" y="1358" type="curve" smooth="yes"/>
      <point x="211" y="1414"/>
      <point x="256" y="1457"/>
      <point x="311" y="1457" type="curve" smooth="yes"/>
      <point x="366" y="1457"/>
      <point x="413" y="1414"/>
      <point x="413" y="1358" type="curve" smooth="yes"/>
      <point x="413" y="1303"/>
      <point x="366" y="1258"/>
    </contour>
    <contour>
      <point x="311" y="1203" type="curve" smooth="yes"/>
      <point x="399" y="1203"/>
      <point x="475" y="1267"/>
      <point x="475" y="1360" type="curve" smooth="yes"/>
      <point x="475" y="1451"/>
      <point x="398" y="1515"/>
      <point x="311" y="1515" type="curve" smooth="yes"/>
      <point x="224" y="1515"/>
      <point x="148" y="1451"/>
      <point x="148" y="1360" type="curve" smooth="yes"/>
      <point x="148" y="1267"/>
      <point x="224" y="1203"/>
    </contour>
  </outline>
</glyph>
<glyph name="ogonek" format="1">
  <advance width="629"/>
  <unicode hex="02DB"/>
  <outline>
    <contour>
      <point x="320" y="-388" type="curve" smooth="yes"/>
      <point x="361" y="-388"/>
      <point x="402" y="-379"/>
      <point x="432" y="-364" type="curve"/>
      <point x="432" y="-364"/>
      <point x="433" y="-331"/>
      <point x="433" y="-318" type="curve" smooth="yes"/>
      <point x="433" y="-313" type="line"/>
      <point x="407" y="-325"/>
      <point x="375" y="-332"/>
      <point x="346" y="-332" type="curve" smooth="yes"/>
      <point x="292" y="-332"/>
      <point x="246" y="-305"/>
      <point x="246" y="-236" type="curve" smooth="yes"/>
      <point x="246" y="-147"/>
      <point x="329" y="-58"/>
      <point x="416" y="0" type="curve"/>
      <point x="357" y="0" type="line"/>
      <point x="233" y="-71"/>
      <point x="166" y="-176"/>
      <point x="166" y="-262" type="curve" smooth="yes"/>
      <point x="166" y="-353"/>
      <point x="240" y="-388"/>
    </contour>
  </outline>
</glyph>
<glyph name="tilde" format="1">
  <advance width="1006"/>
  <unicode hex="02DC"/>
  <outline>
    <contour>
      <point x="502" y="1082" type="move" name="_top"/>
    </contour>
    <contour>
      <point x="194" y="1328" type="curve"/>
      <point x="245" y="1328" type="line"/>
      <point x="248" y="1397"/>
      <point x="273" y="1428"/>
      <point x="309" y="1428" type="curve" smooth="yes"/>
      <point x="387" y="1428"/>
      <point x="522" y="1328"/>
      <point x="622" y="1328" type="curve" smooth="yes"/>
      <point x="662" y="1328"/>
      <point x="733" y="1334"/>
      <point x="733" y="1491" type="curve"/>
      <point x="676" y="1491" type="line"/>
      <point x="671" y="1423"/>
      <point x="650" y="1400"/>
      <point x="615" y="1400" type="curve" smooth="yes"/>
      <point x="547" y="1400"/>
      <point x="430" y="1492"/>
      <point x="323" y="1492" type="curve" smooth="yes"/>
      <point x="269" y="1492"/>
      <point x="194" y="1481"/>
    </contour>
  </outline>
</glyph>
<glyph name="hungarumlaut" format="1">
  <advance width="671"/>
  <unicode hex="02DD"/>
  <outline>
    <contour>
      <point x="381" y="1237" type="line"/>
      <point x="443" y="1237" type="line"/>
      <point x="622" y="1540" type="line"/>
      <point x="533" y="1540" type="line"/>
    </contour>
    <contour>
      <point x="186" y="1237" type="line"/>
      <point x="246" y="1237" type="line"/>
      <point x="375" y="1540" type="line"/>
      <point x="296" y="1540" type="line"/>
    </contour>
    <contour>
      <point x="299" y="1053" type="move" name="_top"/>
    </contour>
  </outline>
</glyph>
<glyph name="uni0307" format="1">
  <advance width="271"/>
  <unicode hex="0307"/>
  <outline>
    <contour>
      <point x="141" y="1082" type="move" name="_top"/>
    </contour>
    <contour>
      <point x="217" y="1449" type="curve" smooth="yes"/>
      <point x="217" y="1497"/>
      <point x="194" y="1521"/>
      <point x="144" y="1521" type="curve" smooth="yes"/>
      <point x="93" y="1521"/>
      <point x="70" y="1497"/>
      <point x="70" y="1449" type="curve" smooth="yes"/>
      <point x="70" y="1401"/>
      <point x="93" y="1377"/>
      <point x="144" y="1377" type="curve" smooth="yes"/>
      <point x="194" y="1377"/>
      <point x="217" y="1401"/>
    </contour>
  </outline>
</glyph>
<glyph name="dblgravecomb" format="1">
  <advance width="708"/>
  <unicode hex="030F"/>
  <outline>
    <contour>
      <point x="404" y="1053" type="move" name="_top"/>
    </contour>
    <contour>
      <point x="454" y="1237" type="line"/>
      <point x="513" y="1237" type="line"/>
      <point x="403" y="1540" type="line"/>
      <point x="324" y="1540" type="line"/>
    </contour>
    <contour>
      <point x="256" y="1237" type="line"/>
      <point x="318" y="1237" type="line"/>
      <point x="167" y="1540" type="line"/>
      <point x="77" y="1540" type="line"/>
    </contour>
  </outline>
</glyph>
<glyph name="uni0311" format="1">
  <advance width="733"/>
  <unicode hex="0311"/>
  <outline>
    <contour>
      <point x="386" y="1082" type="move" name="_top"/>
    </contour>
    <contour>
      <point x="182" y="1279" type="curve"/>
      <point x="237" y="1279" type="line"/>
      <point x="237" y="1399"/>
      <point x="308" y="1443"/>
      <point x="379" y="1443" type="curve" smooth="yes"/>
      <point x="452" y="1443"/>
      <point x="531" y="1399"/>
      <point x="531" y="1279" type="curve"/>
      <point x="583" y="1279" type="line"/>
      <point x="583" y="1439"/>
      <point x="482" y="1496"/>
      <point x="379" y="1496" type="curve" smooth="yes"/>
      <point x="279" y="1496"/>
      <point x="182" y="1440"/>
    </contour>
  </outline>
</glyph>
<glyph name="uni0326" format="1">
  <advance width="601"/>
  <unicode hex="0326"/>
  <outline>
    <contour>
      <point x="314" y="0" type="move" name="_bot"/>
    </contour>
    <contour>
      <point x="251" y="-497" type="curve"/>
      <point x="291" y="-497" type="line"/>
      <point x="291" y="-497"/>
      <point x="352" y="-251"/>
      <point x="352" y="-169" type="curve" smooth="yes"/>
      <point x="352" y="-163" type="line"/>
      <point x="266" y="-163" type="line"/>
      <point x="266" y="-287"/>
      <point x="251" y="-497"/>
    </contour>
  </outline>
</glyph>
<glyph name="uni0394" format="1">
  <advance width="1359"/>
  <unicode hex="0394"/>
  <outline>
    <contour>
      <point x="122" y="0" type="line"/>
      <point x="1203" y="0" type="line"/>
      <point x="700" y="1500" type="line"/>
      <point x="608" y="1500" type="line"/>
    </contour>
    <contour>
      <point x="229" y="88" type="line"/>
      <point x="650" y="1415" type="line"/>
      <point x="1095" y="88" type="line"/>
    </contour>
  </outline>
</glyph>
<glyph name="uni03A9" format="1">
  <advance width="1503"/>
  <unicode hex="03A9"/>
  <outline>
    <contour>
      <point x="1278" y="751" type="curve" smooth="yes"/>
      <point x="1278" y="1065"/>
      <point x="1103" y="1344"/>
      <point x="758" y="1344" type="curve" smooth="yes"/>
      <point x="445" y="1344"/>
      <point x="226" y="1105"/>
      <point x="226" y="756" type="curve" smooth="yes"/>
      <point x="226" y="474"/>
      <point x="368" y="211"/>
      <point x="566" y="72" type="curve"/>
      <point x="566" y="0" type="line"/>
      <point x="117" y="0" type="line"/>
      <point x="108" y="67" type="line"/>
      <point x="489" y="67" type="line"/>
      <point x="278" y="220"/>
      <point x="140" y="445"/>
      <point x="140" y="773" type="curve" smooth="yes"/>
      <point x="140" y="1169"/>
      <point x="397" y="1422"/>
      <point x="763" y="1422" type="curve" smooth="yes"/>
      <point x="1142" y="1422"/>
      <point x="1363" y="1142"/>
      <point x="1363" y="770" type="curve" smooth="yes"/>
      <point x="1363" y="444"/>
      <point x="1201" y="216"/>
      <point x="1016" y="67" type="curve"/>
      <point x="1385" y="67" type="line"/>
      <point x="1377" y="0" type="line"/>
      <point x="936" y="0" type="line"/>
      <point x="936" y="72" type="line"/>
      <point x="1134" y="215"/>
      <point x="1278" y="469"/>
    </contour>
  </outline>
</glyph>
<glyph name="pi" format="1">
  <advance width="1298"/>
  <unicode hex="03C0"/>
  <outline>
    <contour>
      <point x="1047" y="-7" type="curve" smooth="yes"/>
      <point x="1100" y="-7"/>
      <point x="1154" y="12"/>
      <point x="1197" y="44" type="curve"/>
      <point x="1197" y="95" type="line"/>
      <point x="1170" y="84"/>
      <point x="1129" y="74"/>
      <point x="1088" y="74" type="curve" smooth="yes"/>
      <point x="979" y="74"/>
      <point x="935" y="155"/>
      <point x="935" y="347" type="curve" smooth="yes"/>
      <point x="935" y="491"/>
      <point x="959" y="728"/>
      <point x="1000" y="1010" type="curve"/>
      <point x="1240" y="1010" type="line"/>
      <point x="1240" y="1082" type="line"/>
      <point x="406" y="1082" type="line" smooth="yes"/>
      <point x="188" y="1082"/>
      <point x="134" y="1004"/>
      <point x="134" y="786" type="curve"/>
      <point x="190" y="786" type="line"/>
      <point x="202" y="951"/>
      <point x="242" y="1010"/>
      <point x="343" y="1010" type="curve" smooth="yes"/>
      <point x="465" y="1010" type="line"/>
      <point x="369" y="342" type="line" smooth="yes"/>
      <point x="337" y="124"/>
      <point x="196" y="63"/>
      <point x="105" y="63" type="curve"/>
      <point x="105" y="4" type="line"/>
      <point x="379" y="4"/>
      <point x="420" y="115"/>
      <point x="447" y="335" type="curve" smooth="yes"/>
      <point x="528" y="1010" type="line"/>
      <point x="934" y="1010" type="line"/>
      <point x="887" y="689"/>
      <point x="855" y="431"/>
      <point x="855" y="274" type="curve" smooth="yes"/>
      <point x="855" y="73"/>
      <point x="907" y="-7"/>
    </contour>
  </outline>
</glyph>
<glyph name="endash" format="1">
  <advance width="1326"/>
  <unicode hex="2013"/>
  <outline>
    <contour>
      <point x="165" y="578" type="line"/>
      <point x="1161" y="578" type="line"/>
      <point x="1161" y="670" type="line"/>
      <point x="165" y="670" type="line"/>
    </contour>
  </outline>
</glyph>
<glyph name="emdash" format="1">
  <advance width="2323"/>
  <unicode hex="2014"/>
  <outline>
    <contour>
      <point x="60" y="578" type="line"/>
      <point x="2263" y="578" type="line"/>
      <point x="2263" y="644" type="line"/>
      <point x="60" y="644" type="line"/>
    </contour>
  </outline>
</glyph>
<glyph name="quoteleft" format="1">
  <advance width="521"/>
  <unicode hex="2018"/>
  <outline>
    <contour>
      <point x="353" y="1457" type="line"/>
      <point x="293" y="1457" type="line"/>
      <point x="195" y="1007" type="line"/>
      <point x="299" y="1007" type="line"/>
    </contour>
  </outline>
</glyph>
<glyph name="quoteright" format="1">
  <advance width="521"/>
  <unicode hex="2019"/>
  <outline>
    <contour>
      <point x="195" y="1007" type="line"/>
      <point x="255" y="1007" type="line"/>
      <point x="353" y="1457" type="line"/>
      <point x="250" y="1457" type="line"/>
    </contour>
  </outline>
</glyph>
<glyph name="quotesinglbase" format="1">
  <advance width="404"/>
  <unicode hex="201A"/>
  <outline>
    <contour>
      <point x="94" y="-254" type="line"/>
      <point x="142" y="-254" type="line"/>
      <point x="244" y="179" type="line"/>
      <point x="164" y="179" type="line"/>
    </contour>
  </outline>
</glyph>
<glyph name="quotedblleft" format="1">
  <advance width="848"/>
  <unicode hex="201C"/>
  <outline>
    <contour>
      <point x="195" y="1007" type="line"/>
      <point x="299" y="1007" type="line"/>
      <point x="353" y="1457" type="line"/>
      <point x="293" y="1457" type="line"/>
    </contour>
    <contour>
      <point x="488" y="1007" type="line"/>
      <point x="591" y="1007" type="line"/>
      <point x="646" y="1457" type="line"/>
      <point x="586" y="1457" type="line"/>
    </contour>
  </outline>
</glyph>
<glyph name="quotedblright" format="1">
  <advance width="848"/>
  <unicode hex="201D"/>
  <outline>
    <contour>
      <point x="488" y="1007" type="line"/>
      <point x="548" y="1007" type="line"/>
      <point x="646" y="1457" type="line"/>
      <point x="542" y="1457" type="line"/>
    </contour>
    <contour>
      <point x="195" y="1007" type="line"/>
      <point x="255" y="1007" type="line"/>
      <point x="353" y="1457" type="line"/>
      <point x="250" y="1457" type="line"/>
    </contour>
  </outline>
</glyph>
<glyph name="quotedblbase" format="1">
  <advance width="598"/>
  <unicode hex="201E"/>
  <outline>
    <contour>
      <point x="113" y="-254" type="line"/>
      <point x="156" y="-254" type="line"/>
      <point x="247" y="179" type="line"/>
      <point x="176" y="179" type="line"/>
    </contour>
    <contour>
      <point x="336" y="-254" type="line"/>
      <point x="374" y="-254" type="line"/>
      <point x="473" y="179" type="line"/>
      <point x="394" y="179" type="line"/>
    </contour>
  </outline>
</glyph>
<glyph name="bullet" format="1">
  <advance width="811"/>
  <unicode hex="2022"/>
  <outline>
    <contour>
      <point x="394" y="464" type="curve" smooth="yes"/>
      <point x="540" y="464"/>
      <point x="698" y="563"/>
      <point x="698" y="781" type="curve" smooth="yes"/>
      <point x="698" y="999"/>
      <point x="546" y="1099"/>
      <point x="401" y="1099" type="curve" smooth="yes"/>
      <point x="254" y="1099"/>
      <point x="100" y="998"/>
      <point x="100" y="778" type="curve" smooth="yes"/>
      <point x="100" y="561"/>
      <point x="250" y="464"/>
    </contour>
  </outline>
</glyph>
<glyph name="perthousand" format="1">
  <advance width="2642"/>
  <unicode hex="2030"/>
  <outline>
    <contour>
      <point x="2203" y="-13" type="curve" smooth="yes"/>
      <point x="2426" y="-13"/>
      <point x="2533" y="152"/>
      <point x="2533" y="364" type="curve" smooth="yes"/>
      <point x="2533" y="580"/>
      <point x="2429" y="740"/>
      <point x="2203" y="740" type="curve" smooth="yes"/>
      <point x="1983" y="740"/>
      <point x="1876" y="577"/>
      <point x="1876" y="364" type="curve" smooth="yes"/>
      <point x="1876" y="152"/>
      <point x="1979" y="-13"/>
    </contour>
    <contour>
      <point x="2206" y="54" type="curve" smooth="yes"/>
      <point x="2034" y="54"/>
      <point x="1962" y="185"/>
      <point x="1962" y="364" type="curve" smooth="yes"/>
      <point x="1962" y="540"/>
      <point x="2034" y="673"/>
      <point x="2206" y="673" type="curve" smooth="yes"/>
      <point x="2377" y="673"/>
      <point x="2447" y="546"/>
      <point x="2447" y="364" type="curve" smooth="yes"/>
      <point x="2447" y="190"/>
      <point x="2378" y="54"/>
    </contour>
    <component base="percent" xOffset="1"/>
  </outline>
</glyph>
<glyph name="uni2074" format="1">
  <advance width="713"/>
  <unicode hex="2074"/>
  <outline>
    <contour>
      <point x="461" y="656" type="line"/>
      <point x="545" y="656" type="line"/>
      <point x="543" y="888" type="line"/>
      <point x="675" y="888" type="line"/>
      <point x="672" y="947" type="line"/>
      <point x="547" y="947" type="line"/>
      <point x="547" y="1515" type="line"/>
      <point x="455" y="1515" type="line"/>
      <point x="100" y="952" type="line"/>
      <point x="100" y="888" type="line"/>
      <point x="461" y="888" type="line"/>
    </contour>
    <contour>
      <point x="182" y="947" type="line"/>
      <point x="463" y="1414" type="line"/>
      <point x="461" y="947" type="line"/>
    </contour>
  </outline>
</glyph>
<glyph name="trademark" format="1">
  <advance width="1914"/>
  <unicode hex="2122"/>
  <outline>
    <contour>
      <point x="371" y="551" type="line"/>
      <point x="418" y="551" type="line"/>
      <point x="418" y="1445" type="line"/>
      <point x="703" y="1445" type="line"/>
      <point x="703" y="1477" type="line"/>
      <point x="102" y="1477" type="line"/>
      <point x="101" y="1445" type="line"/>
      <point x="371" y="1445" type="line"/>
    </contour>
    <contour>
      <point x="893" y="551" type="line"/>
      <point x="934" y="551" type="line"/>
      <point x="944" y="1427" type="line"/>
      <point x="1307" y="653" type="line"/>
      <point x="1353" y="653" type="line"/>
      <point x="1688" y="1426" type="line"/>
      <point x="1697" y="551" type="line"/>
      <point x="1744" y="551" type="line"/>
      <point x="1733" y="1477" type="line"/>
      <point x="1671" y="1477" type="line"/>
      <point x="1330" y="690" type="line"/>
      <point x="962" y="1477" type="line"/>
      <point x="904" y="1477" type="line"/>
    </contour>
  </outline>
</glyph>
<glyph name="Delta" format="1">
  <advance width="1352"/>
  <unicode hex="2206"/>
  <outline>
    <contour>
      <point x="631" y="1501" type="line"/>
      <point x="103" y="83" type="line"/>
      <point x="103" y="0" type="line"/>
      <point x="1252" y="0" type="line"/>
      <point x="1252" y="83" type="line"/>
      <point x="725" y="1501" type="line"/>
    </contour>
    <contour>
      <point x="703" y="1311" type="line"/>
      <point x="1139" y="101" type="line"/>
      <point x="193" y="101" type="line"/>
      <point x="637" y="1311" type="line"/>
      <point x="669" y="1426" type="line"/>
    </contour>
  </outline>
</glyph>
<glyph name="uni2206" format="1">
  <advance width="1352"/>
  <unicode hex="2206"/>
  <outline>
    <contour>
      <point x="703" y="1311" type="line"/>
      <point x="1139" y="101" type="line"/>
      <point x="193" y="101" type="line"/>
      <point x="637" y="1311" type="line"/>
      <point x="669" y="1426" type="line"/>
    </contour>
    <contour>
      <point x="631" y="1501" type="line"/>
      <point x="103" y="83" type="line"/>
      <point x="103" y="0" type="line"/>
      <point x="1252" y="0" type="line"/>
      <point x="1252" y="83" type="line"/>
      <point x="725" y="1501" type="line"/>
    </contour>
  </outline>
</glyph>
<glyph name="product" format="1">
  <advance width="1436"/>
  <unicode hex="220F"/>
  <outline>
    <contour>
      <point x="221" y="1457" type="line"/>
      <point x="221" y="0" type="line"/>
      <point x="314" y="0" type="line"/>
      <point x="314" y="1362" type="line"/>
      <point x="1186" y="1362" type="line"/>
      <point x="1186" y="0" type="line"/>
      <point x="1279" y="0" type="line"/>
      <point x="1279" y="1457" type="line"/>
    </contour>
  </outline>
</glyph>
<glyph name="summation" format="1">
  <advance width="1340"/>
  <unicode hex="2211"/>
  <outline>
    <contour>
      <point x="151" y="1556" type="line"/>
      <point x="151" y="1493" type="line"/>
      <point x="754" y="604" type="line"/>
      <point x="127" y="-309" type="line"/>
      <point x="127" y="-370" type="line"/>
      <point x="1182" y="-370" type="line"/>
      <point x="1182" y="-260" type="line"/>
      <point x="226" y="-260" type="line"/>
      <point x="903" y="611" type="line"/>
      <point x="247" y="1458" type="line"/>
      <point x="1145" y="1458" type="line"/>
      <point x="1145" y="1556" type="line"/>
    </contour>
  </outline>
</glyph>
<glyph name="minus" format="1">
  <advance width="1089"/>
  <unicode hex="2212"/>
  <outline>
    <contour>
      <point x="67" y="680" type="line"/>
      <point x="67" y="585" type="line"/>
      <point x="996" y="585" type="line"/>
      <point x="996" y="680" type="line"/>
    </contour>
  </outline>
</glyph>
<glyph name="radical" format="1">
  <advance width="1233"/>
  <unicode hex="221A"/>
  <outline>
    <contour>
      <point x="1066" y="1673" type="line"/>
      <point x="1056" y="1659"/>
      <point x="661" y="57"/>
      <point x="651" y="43" type="curve"/>
      <point x="554" y="321"/>
      <point x="447" y="590"/>
      <point x="345" y="864" type="curve"/>
      <point x="105" y="812" type="line"/>
      <point x="116" y="753" type="line"/>
      <point x="255" y="782" type="line"/>
      <point x="627" y="-162" type="line"/>
      <point x="700" y="-162" type="line"/>
      <point x="1157" y="1673" type="line"/>
    </contour>
  </outline>
</glyph>
<glyph name="infinity" format="1">
  <advance width="1728"/>
  <unicode hex="221E"/>
  <outline>
    <contour>
      <point x="862" y="688" type="curve"/>
      <point x="705" y="898"/>
      <point x="588" y="983"/>
      <point x="455" y="983" type="curve" smooth="yes"/>
      <point x="249" y="983"/>
      <point x="110" y="846"/>
      <point x="110" y="642" type="curve" smooth="yes"/>
      <point x="110" y="418"/>
      <point x="249" y="267"/>
      <point x="459" y="267" type="curve" smooth="yes"/>
      <point x="598" y="267"/>
      <point x="716" y="350"/>
      <point x="869" y="555" type="curve"/>
      <point x="1023" y="350"/>
      <point x="1136" y="267"/>
      <point x="1268" y="267" type="curve" smooth="yes"/>
      <point x="1475" y="267"/>
      <point x="1614" y="411"/>
      <point x="1614" y="625" type="curve" smooth="yes"/>
      <point x="1614" y="839"/>
      <point x="1477" y="983"/>
      <point x="1270" y="983" type="curve" smooth="yes"/>
      <point x="1129" y="983"/>
      <point x="1013" y="898"/>
    </contour>
    <contour>
      <point x="829" y="611" type="curve"/>
      <point x="703" y="417"/>
      <point x="596" y="338"/>
      <point x="461" y="338" type="curve" smooth="yes"/>
      <point x="298" y="338"/>
      <point x="189" y="452"/>
      <point x="189" y="622" type="curve" smooth="yes"/>
      <point x="189" y="790"/>
      <point x="295" y="904"/>
      <point x="454" y="904" type="curve" smooth="yes"/>
      <point x="596" y="904"/>
      <point x="704" y="819"/>
    </contour>
    <contour>
      <point x="1525" y="647" type="curve" smooth="yes"/>
      <point x="1525" y="462"/>
      <point x="1424" y="338"/>
      <point x="1270" y="338" type="curve" smooth="yes"/>
      <point x="1158" y="338"/>
      <point x="1053" y="423"/>
      <point x="901" y="636" type="curve"/>
      <point x="1023" y="825"/>
      <point x="1129" y="904"/>
      <point x="1266" y="904" type="curve" smooth="yes"/>
      <point x="1421" y="904"/>
      <point x="1525" y="801"/>
    </contour>
  </outline>
</glyph>
<glyph name="integral" format="1">
  <advance width="740"/>
  <unicode hex="222B"/>
  <outline>
    <contour>
      <point x="330" y="1136" type="curve" smooth="yes"/>
      <point x="330" y="-49" type="line" smooth="yes"/>
      <point x="330" y="-231"/>
      <point x="302" y="-341"/>
      <point x="165" y="-341" type="curve" smooth="yes"/>
      <point x="138" y="-341"/>
      <point x="105" y="-337"/>
      <point x="69" y="-328" type="curve"/>
      <point x="69" y="-398" type="line"/>
      <point x="110" y="-407"/>
      <point x="147" y="-411"/>
      <point x="180" y="-411" type="curve" smooth="yes"/>
      <point x="361" y="-411"/>
      <point x="418" y="-281"/>
      <point x="418" y="-41" type="curve" smooth="yes"/>
      <point x="418" y="1125" type="line" smooth="yes"/>
      <point x="418" y="1340"/>
      <point x="442" y="1404"/>
      <point x="559" y="1404" type="curve" smooth="yes"/>
      <point x="586" y="1404"/>
      <point x="616" y="1399"/>
      <point x="652" y="1388" type="curve"/>
      <point x="652" y="1456" type="line"/>
      <point x="608" y="1466"/>
      <point x="569" y="1471"/>
      <point x="535" y="1471" type="curve" smooth="yes"/>
      <point x="383" y="1471"/>
      <point x="330" y="1372"/>
    </contour>
  </outline>
</glyph>
<glyph name="lessequal" format="1">
  <advance width="1249"/>
  <unicode hex="2264"/>
  <outline>
    <contour>
      <point x="1045" y="229" type="line"/>
      <point x="1045" y="312" type="line"/>
      <point x="261" y="750" type="line"/>
      <point x="1045" y="1212" type="line"/>
      <point x="1045" y="1301" type="line"/>
      <point x="177" y="775" type="line"/>
      <point x="177" y="723" type="line"/>
    </contour>
    <contour>
      <point x="123" y="0" type="line"/>
      <point x="1090" y="0" type="line"/>
      <point x="1090" y="74" type="line"/>
      <point x="123" y="74" type="line"/>
    </contour>
  </outline>
</glyph>
<glyph name="caron.alt" format="1">
  <advance width="837"/>
  <outline>
    <contour>
      <point x="380" y="1082" type="move" name="_caron.alt"/>
    </contour>
    <contour>
      <point x="564" y="1194" type="line"/>
      <point x="641" y="1194" type="line"/>
      <point x="732" y="1528" type="line"/>
      <point x="624" y="1528" type="line"/>
    </contour>
  </outline>
</glyph>
